<?xml version="1.0" encoding="UTF-8"?>
<svg version="1.1" xmlns="http://www.w3.org/2000/svg" width="874" height="236">
<path d="M0 0 C1.0818457 -0.00326294 1.0818457 -0.00326294 2.18554688 -0.0065918 C6.61464913 0.13142995 9.53224676 0.87587345 13.0625 3.5625 C14.44118281 5.19185241 15.77524093 6.85999607 17.0625 8.5625 C17.805 9.201875 18.5475 9.84125 19.3125 10.5 C21.0625 12.5625 21.0625 12.5625 21.4375 15.5625 C21.07912773 18.42947819 20.6538397 20.17549046 19.0625 22.5625 C18.4025 22.8925 17.7425 23.2225 17.0625 23.5625 C16.71234951 25.22571482 16.38052943 26.89284549 16.0625 28.5625 C15.0725 30.0475 15.0725 30.0475 14.0625 31.5625 C13.37149447 33.55422182 12.70347297 35.55411804 12.0625 37.5625 C11.5675 38.5525 11.5675 38.5525 11.0625 39.5625 C17.3325 39.8925 23.6025 40.2225 30.0625 40.5625 C29.7325 39.9025 29.4025 39.2425 29.0625 38.5625 C28.92834528 35.8901379 29.01931459 33.23999512 29.0625 30.5625 C29.7225 30.5625 30.3825 30.5625 31.0625 30.5625 C30.95808594 28.91701172 30.95808594 28.91701172 30.8515625 27.23828125 C30.79526448 25.78391562 30.7406665 24.32948348 30.6875 22.875 C30.63722656 22.15376953 30.58695313 21.43253906 30.53515625 20.68945312 C30.38930082 15.36573 30.38930082 15.36573 32.33911133 13.03930664 C33.85567606 11.80557392 35.45835702 10.67999286 37.0625 9.5625 C38.47173205 7.91334574 38.47173205 7.91334574 39.5 6.375 C42.56601773 3.00985858 44.6589999 2.44320002 49.0625 1.5625 C49.69929687 1.38589844 50.33609375 1.20929687 50.9921875 1.02734375 C53.26095578 0.51794106 55.30168802 0.42963769 57.625 0.4375 C58.38941406 0.43492188 59.15382813 0.43234375 59.94140625 0.4296875 C62.0625 0.5625 62.0625 0.5625 65.0625 1.5625 C65.0625 2.2225 65.0625 2.8825 65.0625 3.5625 C66.01125 3.52125 66.96 3.48 67.9375 3.4375 C71.0625 3.5625 71.0625 3.5625 73.0625 5.5625 C74.2175 5.8925 75.3725 6.2225 76.5625 6.5625 C80.0625 7.5625 80.0625 7.5625 82.0625 9.5625 C83.37997324 10.25998583 84.71164193 10.93209957 86.0625 11.5625 C86.0625 12.2225 86.0625 12.8825 86.0625 13.5625 C87.2690625 13.624375 87.2690625 13.624375 88.5 13.6875 C95.61154068 15.4341942 101.19090262 20.24803013 106.0625 25.5625 C107.0525 26.5525 107.0525 26.5525 108.0625 27.5625 C108.3125 30.5625 108.3125 30.5625 108.0625 33.5625 C107.0725 34.5525 107.0725 34.5525 106.0625 35.5625 C105.670625 36.078125 105.27875 36.59375 104.875 37.125 C102.04985369 39.36563328 99.60981331 39.44017885 96.0625 39.5625 C93.125 38.25 93.125 38.25 91.0625 36.5625 C91.0625 35.9025 91.0625 35.2425 91.0625 34.5625 C90.36125 34.335625 89.66 34.10875 88.9375 33.875 C86.40806758 32.72025911 84.93181959 31.72142461 82.875 29.9375 C80.42134646 27.34743973 80.42134646 27.34743973 78.0625 27.5625 C77.629375 27.10875 77.19625 26.655 76.75 26.1875 C74.1744223 23.70731407 71.26049845 22.82872188 67.8125 22.0625 C67.235 21.8975 66.6575 21.7325 66.0625 21.5625 C65.7325 20.9025 65.4025 20.2425 65.0625 19.5625 C62.48298126 18.87156104 62.48298126 18.87156104 59.5 18.4375 C58.48808594 18.26992188 57.47617187 18.10234375 56.43359375 17.9296875 C55.65113281 17.80851562 54.86867188 17.68734375 54.0625 17.5625 C52.93321008 20.61657285 52.93321008 20.61657285 52.625 24.1875 C52.439375 25.30125 52.25375 26.415 52.0625 27.5625 C51.4025 27.8925 50.7425 28.2225 50.0625 28.5625 C50.0625 32.5225 50.0625 36.4825 50.0625 40.5625 C57.32962689 40.47706976 64.59653226 40.38335758 71.86335564 40.27497292 C75.23747504 40.22498102 78.61156269 40.17865163 81.98583984 40.140625 C85.86314629 40.09512672 89.74009052 40.03710721 93.6171875 39.9765625 C95.4391011 39.95923569 95.4391011 39.95923569 97.29782104 39.94155884 C98.97933762 39.9117543 98.97933762 39.9117543 100.69482422 39.88134766 C101.68521698 39.86802399 102.67560974 39.85470032 103.6960144 39.8409729 C106.24985695 39.78822554 106.24985695 39.78822554 108.0625 37.5625 C110.890625 37.296875 110.890625 37.296875 114.3125 37.3125 C115.43140625 37.30734375 116.5503125 37.3021875 117.703125 37.296875 C121.0625 37.5625 121.0625 37.5625 123.9375 38.546875 C128.61830621 40.06813702 133.24854927 39.98924426 138.13671875 40.12890625 C143.86026213 40.36026213 143.86026213 40.36026213 146.0625 42.5625 C146.44536803 46.29546326 146.21165785 47.33876323 144.0625 50.5625 C141.11185852 50.7833564 138.37881769 50.84310989 135.4375 50.75 C134.63570312 50.73646484 133.83390625 50.72292969 133.0078125 50.70898438 C131.02575622 50.67359051 129.04404449 50.61978234 127.0625 50.5625 C126.93746094 51.64660156 126.81242188 52.73070312 126.68359375 53.84765625 C125.9855343 58.02284204 124.69866766 60.28726139 122.0625 63.5625 C121.4025 63.5625 120.7425 63.5625 120.0625 63.5625 C120.07297363 64.19115967 120.08344727 64.81981934 120.09423828 65.4675293 C120.401634 86.73814559 120.401634 86.73814559 118.5 96.6953125 C117.87112247 100.81670629 118.00706068 104.84816322 118.1875 109.00390625 C118.0548197 111.71970616 117.45265074 113.25463256 116.0625 115.5625 C113.31223583 115.61654449 110.56303797 115.65619306 107.8125 115.6875 C107.03519531 115.70425781 106.25789062 115.72101563 105.45703125 115.73828125 C98.38107725 115.79875949 98.38107725 115.79875949 95.0625 113.5625 C94.134375 113.005625 93.20625 112.44875 92.25 111.875 C90.0625 109.5625 90.0625 109.5625 90.125 106.125 C91.0625 102.5625 91.0625 102.5625 92.125 100.0625 C93.26828013 97.48064845 93.26828013 97.48064845 93 94.1875 C93.07543015 89.81255114 94.24503538 87.50034001 96.0625 83.5625 C96.0625 82.5725 96.0625 81.5825 96.0625 80.5625 C95.0725 80.5625 94.0825 80.5625 93.0625 80.5625 C92.0725 80.5625 91.0825 80.5625 90.0625 80.5625 C89.60875 81.0575 89.155 81.5525 88.6875 82.0625 C86.4693754 84.10999963 85.00030989 83.5625 82.0625 83.5625 C80.41655861 84.95838754 80.41655861 84.95838754 79.0625 86.5625 C78.0725 86.8925 77.0825 87.2225 76.0625 87.5625 C74.86698757 89.23737764 74.86698757 89.23737764 75.0625 91.5625 C77.04482096 94.43038117 79.17191139 96.98857918 81.45898438 99.609375 C83.74942137 102.36956216 85.01104102 104.21325379 85.5390625 107.796875 C84.95705478 111.17442798 83.59761276 112.64205357 80.83984375 114.640625 C77.69086508 116.27394141 75.50953435 116.17804185 72.0625 115.5625 C69.62976374 114.10820492 68.07832462 112.62749108 66.0625 110.5625 C66.0625 109.9025 66.0625 109.2425 66.0625 108.5625 C65.4025 108.2325 64.7425 107.9025 64.0625 107.5625 C57.75525024 103.07734462 53.98447313 97.60499759 52.25 90 C52.188125 89.195625 52.12625 88.39125 52.0625 87.5625 C52.7225 87.5625 53.3825 87.5625 54.0625 87.5625 C53.7325 86.5725 53.4025 85.5825 53.0625 84.5625 C53.89853774 82.11410376 54.90680427 79.87389145 56.0625 77.5625 C56.7225 77.5625 57.3825 77.5625 58.0625 77.5625 C58.0625 76.5725 58.0625 75.5825 58.0625 74.5625 C59.0525 74.2325 60.0425 73.9025 61.0625 73.5625 C61.7225 72.9025 62.3825 72.2425 63.0625 71.5625 C65.82191581 70.92795079 68.52405226 70.39677374 71.3125 69.9375 C72.43978516 69.73640625 72.43978516 69.73640625 73.58984375 69.53125 C76.94549685 68.95733376 80.03735803 68.56244207 83.453125 68.5703125 C86.17548871 68.78479824 86.17548871 68.78479824 88.5625 67.0625 C91.59761378 65.24143173 93.58411235 65.31982179 97.0625 65.5625 C97.495625 64.6653125 97.495625 64.6653125 97.9375 63.75 C99.0625 61.5625 99.0625 61.5625 101.0625 58.5625 C101.3925 58.5625 101.7225 58.5625 102.0625 58.5625 C102.0625 56.2525 102.0625 53.9425 102.0625 51.5625 C84.2425 51.5625 66.4225 51.5625 48.0625 51.5625 C48.0625 52.2225 48.0625 52.8825 48.0625 53.5625 C47.4025 53.5625 46.7425 53.5625 46.0625 53.5625 C46.10890625 54.71621094 46.1553125 55.86992188 46.203125 57.05859375 C46.58022032 71.22912875 44.64546156 84.65160332 42.0625 98.5625 C42.7225 98.5625 43.3825 98.5625 44.0625 98.5625 C44.0625 99.8825 44.0625 101.2025 44.0625 102.5625 C43.4025 102.5625 42.7425 102.5625 42.0625 102.5625 C41.7325 106.8525 41.4025 111.1425 41.0625 115.5625 C38.18692297 115.64388426 35.31367738 115.70317851 32.4375 115.75 C31.62925781 115.77513672 30.82101562 115.80027344 29.98828125 115.82617188 C24.88560684 115.88839961 21.53110312 115.31741551 17.0625 112.5625 C17.0625 111.9025 17.0625 111.2425 17.0625 110.5625 C16.4025 110.2325 15.7425 109.9025 15.0625 109.5625 C15.61913524 100.02292367 15.61913524 100.02292367 17.625 95.8125 C19.15453998 92.35440962 19.14329895 90.27925151 19.0625 86.5625 C19.7215841 84.89282028 20.38900839 83.22642045 21.0625 81.5625 C21.26050007 80.23345842 21.42483123 78.89913864 21.5625 77.5625 C21.81835439 75.10903914 22.11552 73.43326376 23.0625 71.125 C24.30811972 67.93309948 24.49008435 64.95218274 24.71875 61.55078125 C25.0625 59.5625 25.0625 59.5625 27.0625 57.5625 C27.22931109 54.47902174 27.22931109 54.47902174 27.0625 51.5625 C27.7225 51.2325 28.3825 50.9025 29.0625 50.5625 C21.8025 50.5625 14.5425 50.5625 7.0625 50.5625 C7.14628906 52.17640625 7.23007812 53.7903125 7.31640625 55.453125 C7.41958122 57.57290158 7.52242875 59.69269412 7.625 61.8125 C7.70911133 63.40771484 7.70911133 63.40771484 7.79492188 65.03515625 C7.84326172 66.05996094 7.89160156 67.08476563 7.94140625 68.140625 C8.01210327 69.55456543 8.01210327 69.55456543 8.08422852 70.99707031 C8.06374494 73.41551297 7.66688044 75.24149526 7.0625 77.5625 C6.98338457 79.22239282 6.95471115 80.8851287 6.96484375 82.546875 C6.96806641 83.48144531 6.97128906 84.41601562 6.97460938 85.37890625 C6.98298828 86.34699219 6.99136719 87.31507812 7 88.3125 C7.00451172 89.29605469 7.00902344 90.27960938 7.01367188 91.29296875 C7.02543517 93.71620791 7.04187316 96.13932273 7.0625 98.5625 C6.4025 98.5625 5.7425 98.5625 5.0625 98.5625 C5.3925 99.2225 5.7225 99.8825 6.0625 100.5625 C6.18364921 102.20505791 6.23790767 103.85302478 6.25 105.5 C6.26417969 106.37527344 6.27835938 107.25054687 6.29296875 108.15234375 C6.0625 110.5625 6.0625 110.5625 4.0625 113.5625 C3.7325 114.2225 3.4025 114.8825 3.0625 115.5625 C0.5409979 115.64422936 -1.97779917 115.70333373 -4.5 115.75 C-5.20447266 115.77513672 -5.90894531 115.80027344 -6.63476562 115.82617188 C-11.8042182 115.89763896 -15.41561448 115.14890331 -19.9375 112.5625 C-23.41232214 106.50503979 -21.63082611 99.16247293 -19.9375 92.8125 C-19.29421638 90.72182824 -18.62921687 88.6376506 -17.9375 86.5625 C-17.56859697 85.00341346 -17.21534121 83.44056959 -16.875 81.875 C-16.69839844 81.06675781 -16.52179688 80.25851563 -16.33984375 79.42578125 C-16.20707031 78.81089844 -16.07429687 78.19601563 -15.9375 77.5625 C-15.2775 77.5625 -14.6175 77.5625 -13.9375 77.5625 C-13.97230469 76.87285156 -14.00710938 76.18320313 -14.04296875 75.47265625 C-14.2121303 69.60033391 -13.70446601 65.05719766 -11.60546875 59.578125 C-10.70681144 56.86638715 -10.71993231 54.39087998 -10.9375 51.5625 C-10.2775 51.2325 -9.6175 50.9025 -8.9375 50.5625 C-41.2775 50.5625 -73.6175 50.5625 -106.9375 50.5625 C-107.9375 46.5625 -107.9375 46.5625 -106.9375 43.5625 C-105.39815984 41.61208408 -104.52744474 40.68398699 -102.06908894 40.17773914 C-101.3639173 40.17313018 -100.65874567 40.16852121 -99.9322052 40.16377258 C-98.71438103 40.14496536 -98.71438103 40.14496536 -97.47195435 40.1257782 C-96.14162674 40.12793083 -96.14162674 40.12793083 -94.78442383 40.13012695 C-93.84764297 40.1199353 -92.91086212 40.10974365 -91.94569397 40.09924316 C-88.84524632 40.06901724 -85.74510712 40.05983251 -82.64453125 40.05078125 C-80.49646469 40.03394169 -78.34840804 40.01579244 -76.20036316 39.99638367 C-70.54345797 39.94879909 -64.8865929 39.9190444 -59.22955322 39.89294434 C-53.4582934 39.86318148 -47.68717194 39.81663651 -41.91601562 39.77148438 C-30.589916 39.68535501 -19.26378797 39.61805258 -7.9375 39.5625 C-7.80472656 38.94761719 -7.67195312 38.33273438 -7.53515625 37.69921875 C-7.35855469 36.89097656 -7.18195313 36.08273438 -7 35.25 C-6.82597656 34.44949219 -6.65195312 33.64898437 -6.47265625 32.82421875 C-5.9375 30.5625 -5.9375 30.5625 -4.9375 27.5625 C-4.87084624 26.16810336 -4.85211801 24.77080125 -4.875 23.375 C-4.895625 22.116875 -4.91625 20.85875 -4.9375 19.5625 C-5.72125 20.366875 -6.505 21.17125 -7.3125 22 C-9.9375 24.5625 -9.9375 24.5625 -11.9375 25.5625 C-13.175 27.0784375 -13.175 27.0784375 -14.4375 28.625 C-15.675 30.0790625 -15.675 30.0790625 -16.9375 31.5625 C-17.5975 31.5625 -18.2575 31.5625 -18.9375 31.5625 C-19.040625 32.160625 -19.14375 32.75875 -19.25 33.375 C-20.07065798 35.98618447 -20.68011495 37.00568272 -22.9375 38.5625 C-27.37810813 39.26896038 -30.4387639 38.26880533 -34.2578125 35.91796875 C-37.17158668 33.56662075 -38.93998959 30.71009216 -40.9375 27.5625 C-39.19156749 24.48633319 -37.53938966 21.95623849 -34.9375 19.5625 C-34.31875 18.94375 -33.7 18.325 -33.0625 17.6875 C-32.36125 16.98625 -31.66 16.285 -30.9375 15.5625 C-29.7 14.2321875 -29.7 14.2321875 -28.4375 12.875 C-25.96948389 10.5920851 -25.05116521 10.22971397 -21.9375 9.5625 C-21.6075 8.5725 -21.2775 7.5825 -20.9375 6.5625 C-14.48879425 1.69040797 -7.91181017 0.00256433 0 0 Z M9.0625 41.5625 C9.0625 41.8925 9.0625 42.2225 9.0625 42.5625 C15.9925 42.5625 22.9225 42.5625 30.0625 42.5625 C30.0625 42.2325 30.0625 41.9025 30.0625 41.5625 C23.1325 41.5625 16.2025 41.5625 9.0625 41.5625 Z M49.0625 41.5625 C49.0625 41.8925 49.0625 42.2225 49.0625 42.5625 C67.8725 42.5625 86.6825 42.5625 106.0625 42.5625 C106.0625 42.2325 106.0625 41.9025 106.0625 41.5625 C87.2525 41.5625 68.4425 41.5625 49.0625 41.5625 Z " fill="#070707" transform="translate(725.9375,36.4375)"/>
<path d="M0 0 C13.53 0 27.06 0 41 0 C40.34 1.98 39.68 3.96 39 6 C38.68618582 8.13210911 38.68618582 8.13210911 38.68115234 10.16943359 C38.66128265 10.92976898 38.64141296 11.69010437 38.62094116 12.47348022 C38.60361435 13.67383408 38.60361435 13.67383408 38.5859375 14.8984375 C38.56657135 15.73339752 38.5472052 16.56835754 38.5272522 17.42861938 C38.46780386 20.07731126 38.42121106 22.72604743 38.375 25.375 C38.33678818 27.17840364 38.29773461 28.98178966 38.2578125 30.78515625 C38.16055725 35.19000883 38.08071447 39.59468945 38 44 C44.93 44 51.86 44 59 44 C58.92577498 38.85799809 58.84274676 33.71766457 58.73754883 28.57641602 C58.70442233 26.82976101 58.67635263 25.08300212 58.65356445 23.33618164 C58.61979119 20.8161213 58.56746653 18.29700248 58.51171875 15.77734375 C58.50532883 15.00414291 58.4989389 14.23094208 58.49235535 13.43431091 C58.46266411 12.32395226 58.46266411 12.32395226 58.43237305 11.19116211 C58.41571846 10.22852699 58.41571846 10.22852699 58.39872742 9.2464447 C57.92796789 6.09975132 57.92796789 6.09975132 55 0 C68.86 0 82.72 0 97 0 C91 7 91 7 90 8 C89.8677816 10.45720328 89.80020769 12.88707341 89.77539062 15.34619141 C89.76400055 16.11537903 89.75261047 16.88456665 89.74087524 17.67706299 C89.63006049 25.74106748 89.58275724 33.80599961 89.54003906 41.87060547 C89.51778367 45.69658391 89.4760512 49.52158383 89.41699219 53.34716797 C89.34583726 57.96499081 89.30919659 62.58189436 89.29692078 67.20023727 C89.2865283 68.95853219 89.26412294 70.71679979 89.22932434 72.47478104 C88.72944455 81.92830685 88.72944455 81.92830685 91.60717773 90.64178467 C93.32029668 92.34805071 94.98778423 93.67604292 97 95 C97 95.33 97 95.66 97 96 C83.14 96 69.28 96 55 96 C55.99 93.69 56.98 91.38 58 89 C58.41705859 85.41706032 58.41705859 85.41706032 58.3359375 81.7109375 C58.34843922 80.34374515 58.36147584 78.97655761 58.375 77.609375 C58.37893734 75.48517924 58.37490719 73.36145623 58.36035156 71.23730469 C58.351762 69.16531217 58.37347126 67.09525892 58.3984375 65.0234375 C58.39505371 63.79544434 58.39166992 62.56745117 58.38818359 61.30224609 C59 58 59 58 64 53 C53.44 53 42.88 53 32 53 C33.98 54.98 35.96 56.96 38 59 C38.74121094 62.43164063 38.74121094 62.43164063 38.734375 66.15625 C38.74781952 67.1542865 38.74781952 67.1542865 38.76153564 68.17248535 C38.78548166 70.28258069 38.76981085 72.38990237 38.75 74.5 C38.75144907 76.60936637 38.76145658 78.7182414 38.78131104 80.82751465 C38.79608241 82.74107326 38.78690345 84.65477276 38.77636719 86.56835938 C38.88730061 90.50812041 38.88730061 90.50812041 41 96 C27.47 96 13.94 96 0 96 C1.98 93.69 3.96 91.38 6 89 C6.58761414 85.98618861 6.82613462 83.78278413 6.77636719 80.7890625 C6.7868811 79.99949158 6.79739502 79.20992065 6.80822754 78.39642334 C6.83448111 75.8051266 6.81721109 73.21631851 6.796875 70.625 C6.80092088 68.81330904 6.80674742 67.00162127 6.81427002 65.18994141 C6.82309659 61.40039943 6.81032188 57.61170835 6.78222656 53.82226562 C6.74804036 48.97637197 6.76773394 44.13247219 6.80366135 39.28665161 C6.82539306 35.54778144 6.81841948 31.80938028 6.80289459 28.07049561 C6.79890588 26.28440105 6.80375544 24.49826325 6.81777191 22.71221924 C6.83309761 20.21065298 6.80967487 17.71226804 6.77636719 15.2109375 C6.79458527 14.11504303 6.79458527 14.11504303 6.81317139 12.99700928 C6.64892447 6.30375174 5.00447086 5.83854933 0 0 Z " fill="#000000" transform="translate(193,57)"/>
<path d="M0 0 C2.42632412 0.10641556 4.76743449 -0.01895532 7.19018555 -0.16625977 C18.86335245 -0.335773 27.37099483 5.28588705 35.55540276 13.23020554 C44.92875717 22.93697144 46.24767235 32.66471837 46.09510803 45.74836731 C46.0021601 49.48873319 45.80564269 53.21917984 45.58612061 56.95397949 C45.25590155 62.99379777 45.13583528 69.04241348 44.99687195 75.08903694 C44.93188914 77.17906407 44.81782537 79.26148801 44.69372559 81.34873962 C44.64228394 82.61859207 44.59084229 83.88844452 44.5378418 85.19677734 C44.47592651 86.30512436 44.41401123 87.41347137 44.35021973 88.55540466 C44.88950697 92.88571694 44.88950697 92.88571694 50.96166992 98.79272461 C37.43166992 98.79272461 23.90166992 98.79272461 9.96166992 98.79272461 C10.62166992 96.81272461 11.28166992 94.83272461 11.96166992 92.79272461 C12.12852112 90.32703472 12.20073052 87.85389702 12.19995117 85.38256836 C12.21536039 83.96654304 12.23166324 82.5505272 12.2487793 81.13452148 C12.26525616 78.92686826 12.27413702 76.71991703 12.26708984 74.51220703 C12.26446518 72.36403723 12.29259743 70.21795793 12.32495117 68.07006836 C12.32793213 66.79381592 12.33091309 65.51756348 12.33398438 64.20263672 C12.96166992 60.79272461 12.96166992 60.79272461 17.96166992 55.79272461 C7.73166992 55.79272461 -2.49833008 55.79272461 -13.03833008 55.79272461 C-11.38833008 57.44272461 -9.73833008 59.09272461 -8.03833008 60.79272461 C-7.42651367 64.0949707 -7.42651367 64.0949707 -7.43676758 67.81616211 C-7.42876129 68.48056305 -7.420755 69.14496399 -7.4125061 69.82949829 C-7.38953435 71.94286847 -7.39884799 74.05430494 -7.41333008 76.16772461 C-7.41719769 78.27364178 -7.41356151 80.3787041 -7.39273071 82.48452759 C-7.37521394 84.40016818 -7.38257556 86.31598891 -7.39135742 88.23168945 C-7.14805028 92.50763635 -7.14805028 92.50763635 -4.03833008 98.79272461 C-17.89833008 98.79272461 -31.75833008 98.79272461 -46.03833008 98.79272461 C-40.03833008 91.79272461 -40.03833008 91.79272461 -39.03833008 90.79272461 C-39.02507757 88.81542113 -39.08230384 86.8376253 -39.16625977 84.86206055 C-39.40755956 78.43799952 -39.56247779 72.019422 -39.65310287 65.59150314 C-39.71289879 61.70601968 -39.80938072 57.8291774 -39.99487305 53.94750977 C-41.2936691 25.71031927 -41.2936691 25.71031927 -31.38935852 14.03993225 C-22.20288717 4.8348769 -13.1781512 -0.69739124 0 0 Z M-6.57202148 15.32788086 C-9.68759431 20.56511417 -8.74029019 26.83440366 -8.47583008 32.73022461 C-8.44066824 34.09537889 -8.40873775 35.46062044 -8.38012695 36.82592773 C-8.29792761 40.14912991 -8.17238224 43.47120997 -8.03833008 46.79272461 C-1.10833008 46.79272461 5.82166992 46.79272461 12.96166992 46.79272461 C13.12327274 42.78856596 13.26224997 38.79279468 13.34619141 34.78710938 C13.38119771 33.42799381 13.4288233 32.06913814 13.48974609 30.7109375 C14.01458526 22.70719028 14.01458526 22.70719028 11.49536133 15.32788086 C8.55348205 12.27138291 6.62308813 10.95807916 2.46166992 9.91772461 C-1.69974829 10.95807916 -3.6301422 12.27138291 -6.57202148 15.32788086 Z " fill="#000000" transform="translate(353.038330078125,54.207275390625)"/>
<path d="M0 0 C13.53 0 27.06 0 41 0 C40.34 1.98 39.68 3.96 39 6 C38.68618582 8.13210911 38.68618582 8.13210911 38.68115234 10.16943359 C38.66128265 10.92976898 38.64141296 11.69010437 38.62094116 12.47348022 C38.60361435 13.67383408 38.60361435 13.67383408 38.5859375 14.8984375 C38.56657135 15.73339752 38.5472052 16.56835754 38.5272522 17.42861938 C38.46780386 20.07731126 38.42121106 22.72604743 38.375 25.375 C38.33678818 27.17840364 38.29773461 28.98178966 38.2578125 30.78515625 C38.16213119 35.18995984 38.07797289 39.5948488 38 44 C40.83545584 44.23297334 40.83545584 44.23297334 44 43 C46.21667593 40.17624234 47.63051338 36.99134032 49.14453125 33.75 C49.59978683 32.82155273 50.05504242 31.89310547 50.52409363 30.93652344 C51.97457025 27.96736055 53.39393917 24.98452331 54.8125 22 C56.25569627 19.01913673 57.70493583 16.04126429 59.15446472 13.06347656 C60.05444579 11.20856651 60.94935606 9.35118637 61.83882141 7.49121094 C62.23981552 6.65364258 62.64080963 5.81607422 63.05395508 4.953125 C63.40669998 4.21223633 63.75944489 3.47134766 64.12287903 2.70800781 C65 1 65 1 66 0 C68.69654854 -0.07319621 71.36691458 -0.09242537 74.0625 -0.0625 C74.82111328 -0.05798828 75.57972656 -0.05347656 76.36132812 -0.04882812 C78.24091871 -0.0370068 80.12046899 -0.01907078 82 0 C81.11957031 0.95648438 80.23914063 1.91296875 79.33203125 2.8984375 C75.7152442 7.12209655 73.21123662 11.69311776 70.6875 16.625 C70.24599609 17.45773438 69.80449219 18.29046875 69.34960938 19.1484375 C66.38588656 24.81002864 66.38588656 24.81002864 65 31 C65.90520153 33.85548239 65.90520153 33.85548239 67.45336914 36.78076172 C68.01468033 37.91899384 68.57599152 39.05722595 69.15431213 40.22994995 C69.78067274 41.46349426 70.40763608 42.69673267 71.03515625 43.9296875 C71.67333401 45.20567898 72.31056214 46.4821458 72.94688416 47.75906372 C74.28415166 50.43489312 75.63099127 53.10560812 76.98510742 55.77294922 C78.71055595 59.17300247 80.41469328 62.58318994 82.11200809 65.99735832 C83.42653387 68.63677154 84.75098879 71.27110298 86.07851982 73.90399551 C86.70987669 75.15840618 87.33855348 76.41416982 87.96437263 77.67135239 C88.84669818 79.43932969 89.74357089 81.20002372 90.64086914 82.96044922 C91.39818077 84.46005692 91.39818077 84.46005692 92.17079163 85.98995972 C94.41595048 89.86741552 94.41595048 89.86741552 100 96 C88.78 96 77.56 96 66 96 C58.44227579 81.7736956 51.1597993 67.43031714 44 53 C40.04 53 36.08 53 32 53 C33.46179688 54.00546875 33.46179688 54.00546875 34.953125 55.03125 C39.23659231 59.31975076 38.75183514 64.53681204 38.78515625 70.25390625 C38.77502073 71.66928306 38.76328816 73.08464928 38.75 74.5 C38.75144907 76.60936637 38.76145658 78.7182414 38.78131104 80.82751465 C38.79608241 82.74107326 38.78690345 84.65477276 38.77636719 86.56835938 C38.88730061 90.50812041 38.88730061 90.50812041 41 96 C27.47 96 13.94 96 0 96 C1.98 93.69 3.96 91.38 6 89 C6.58761414 85.98618861 6.82613462 83.78278413 6.77636719 80.7890625 C6.7868811 79.99949158 6.79739502 79.20992065 6.80822754 78.39642334 C6.83448111 75.8051266 6.81721109 73.21631851 6.796875 70.625 C6.80092088 68.81330904 6.80674742 67.00162127 6.81427002 65.18994141 C6.82309659 61.40039943 6.81032188 57.61170835 6.78222656 53.82226562 C6.74804036 48.97637197 6.76773394 44.13247219 6.80366135 39.28665161 C6.82539306 35.54778144 6.81841948 31.80938028 6.80289459 28.07049561 C6.79890588 26.28440105 6.80375544 24.49826325 6.81777191 22.71221924 C6.83309761 20.21065298 6.80967487 17.71226804 6.77636719 15.2109375 C6.79458527 14.11504303 6.79458527 14.11504303 6.81317139 12.99700928 C6.64892447 6.30375174 5.00447086 5.83854933 0 0 Z " fill="#000000" transform="translate(514,57)"/>
<path d="M0 0 C1.6256916 0.00343666 1.6256916 0.00343666 3.28422546 0.00694275 C5.55768482 0.02195331 7.83110212 0.06108176 10.10375977 0.12329102 C13.58338966 0.21508568 17.05639006 0.22583541 20.53710938 0.22460938 C22.75396374 0.24917383 24.97077318 0.27831057 27.1875 0.3125 C28.22401199 0.31806412 29.26052399 0.32362823 30.32844543 0.32936096 C38.31255835 0.59236362 38.31255835 0.59236362 41.45385742 3.70483398 C42.34874878 4.91635132 42.34874878 4.91635132 43.26171875 6.15234375 C45.50242969 5.14788712 47.1392686 4.2747939 48.88671875 2.52734375 C49.34046875 2.07359375 49.79421875 1.61984375 50.26171875 1.15234375 C50.92171875 1.15234375 51.58171875 1.15234375 52.26171875 1.15234375 C52.26171875 11.05234375 52.26171875 20.95234375 52.26171875 31.15234375 C44.51747174 24.51441774 44.51747174 24.51441774 42.24609375 21.28515625 C37.95573983 15.81088696 34.01554799 10.92358803 26.93212891 9.46826172 C19.01636675 8.84258091 11.14659157 9.31462434 3.26171875 10.15234375 C4.47920303 11.18161987 4.47920303 11.18161987 5.72128296 12.23168945 C8.79368742 15.76393039 8.89316671 17.27052228 8.90869141 21.8828125 C8.9218338 22.8667247 8.9218338 22.8667247 8.9352417 23.87051392 C8.95715635 26.02764044 8.94271486 28.18269831 8.92578125 30.33984375 C8.92915176 31.84530021 8.93400634 33.350754 8.9402771 34.85620117 C8.94763754 38.00693747 8.93697093 41.15696363 8.91357422 44.30761719 C8.88508539 48.3398033 8.90149403 52.37032546 8.93143654 56.40245056 C8.94953285 59.50985173 8.94374114 62.61686048 8.93079758 65.72427368 C8.92746993 67.21058348 8.93152813 68.69692929 8.94319534 70.18319702 C8.95594449 72.26371148 8.93647878 74.34155855 8.90869141 76.421875 C8.90471344 77.60370361 8.90073547 78.78553223 8.89663696 80.00317383 C8.08519551 84.02789223 6.34472096 85.54593592 3.26171875 88.15234375 C18.93195107 90.65205858 18.93195107 90.65205858 33.58544922 86.09130859 C39.69731738 81.22036297 44.78983502 75.16369096 49.64892578 69.08007812 C50.18114746 68.44392578 50.71336914 67.80777344 51.26171875 67.15234375 C51.59171875 67.15234375 51.92171875 67.15234375 52.26171875 67.15234375 C52.26171875 77.05234375 52.26171875 86.95234375 52.26171875 97.15234375 C49.02696427 95.53496651 47.55599854 94.67605152 45.26171875 92.15234375 C43.08422333 93.12846239 41.5010395 93.87645332 39.92323303 95.69535828 C37.72214712 97.62549528 36.39251128 97.57149833 33.48999023 97.65161133 C32.52145615 97.68366165 31.55292206 97.71571198 30.55503845 97.74873352 C29.50820389 97.76462021 28.46136932 97.7805069 27.3828125 97.796875 C25.7600515 97.82608284 25.7600515 97.82608284 24.10450745 97.85588074 C21.81058351 97.88862705 19.51651697 97.91241384 17.22241211 97.92797852 C13.73481047 97.96447133 10.25361363 98.07030076 6.76757812 98.17773438 C4.53519699 98.20093667 2.3027676 98.21994821 0.0703125 98.234375 C-0.96235245 98.27657669 -1.9950174 98.31877838 -3.05897522 98.36225891 C-9.06518028 98.30812805 -12.75003354 97.0485133 -17.39331055 93.1628418 C-23.57562569 86.19044777 -23.1926534 78.68704325 -23.06640625 69.90234375 C-23.07315775 68.2366393 -23.08287558 66.5709445 -23.09539795 64.90527344 C-23.11007262 61.42807451 -23.08895139 57.95345884 -23.04199219 54.4765625 C-22.98499889 50.04329852 -23.01784385 45.61608677 -23.07771683 41.18304443 C-23.11404631 37.74742923 -23.10226789 34.31322372 -23.0764389 30.87756348 C-23.06982037 29.24466209 -23.07776983 27.61162803 -23.10123444 25.97888184 C-23.19148524 17.93604198 -23.01132137 11.47777021 -17.38891602 5.14624023 C-11.78778592 0.45922952 -7.13198963 -0.24964675 0 0 Z " fill="#000000" transform="translate(443.73828125,55.84765625)"/>
<path d="M0 0 C3.625 1 3.625 1 6 2 C6 2.66 6 3.32 6 4 C7.65 4.33 9.3 4.66 11 5 C11 5.66 11 6.32 11 7 C12.45833358 8.62514468 12.45833358 8.62514468 14 10 C12.7260411 12.03833424 11.38938077 14.03852126 10 16 C9.34 16 8.68 16 8 16 C7.87625 16.61875 7.7525 17.2375 7.625 17.875 C7 20 7 20 5 22 C4.54188325 23.97235333 4.54188325 23.97235333 4.375 26.125 C4.189375 28.043125 4.189375 28.043125 4 30 C4.33 30 4.66 30 5 30 C5.02689449 32.95839355 5.04678741 35.91654427 5.0625 38.875 C5.07087891 39.71675781 5.07925781 40.55851562 5.08789062 41.42578125 C5.09111328 42.23144531 5.09433594 43.03710938 5.09765625 43.8671875 C5.10289307 44.61081543 5.10812988 45.35444336 5.11352539 46.12060547 C5 48 5 48 4 50 C3.92934383 52.04055005 3.91578024 54.08334257 3.9375 56.125 C3.94652344 57.22070312 3.95554687 58.31640625 3.96484375 59.4453125 C3.97644531 60.28835937 3.98804688 61.13140625 4 62 C0.28499561 64.36666524 -3.0414132 64.29952519 -7.375 64.3125 C-8.66148437 64.32925781 -9.94796875 64.34601563 -11.2734375 64.36328125 C-15.9181498 63.91049483 -18.99208848 62.27167729 -22.875 59.8125 C-24.81687924 56.68391678 -24.56426713 53.50315842 -24 50 C-23.05035656 47.32517097 -21.97660066 44.77136236 -20.77734375 42.19921875 C-19.70142098 39.87189177 -19.70142098 39.87189177 -21 37 C-20.40206327 34.64811553 -19.74118205 32.31074405 -19 30 C-18.34 30 -17.68 30 -17 30 C-17.495 28.515 -17.495 28.515 -18 27 C-17.63078302 22.86476981 -17.32378307 20.4856746 -15 17 C-16.05270463 15.84188612 -16.05270463 15.84188612 -18 15 C-18 15.99 -18 16.98 -18 18 C-18.55429687 18.25394531 -19.10859375 18.50789063 -19.6796875 18.76953125 C-20.40414062 19.11371094 -21.12859375 19.45789063 -21.875 19.8125 C-22.59429688 20.14894531 -23.31359375 20.48539063 -24.0546875 20.83203125 C-26.30542806 21.99467097 -26.30542806 21.99467097 -28 25 C-27.65239511 26.95390658 -27.65239511 26.95390658 -27 29 C-26.93403637 30.49869371 -26.91438408 32.00003344 -26.9375 33.5 C-26.94652344 34.2528125 -26.95554687 35.005625 -26.96484375 35.78125 C-26.97644531 36.5134375 -26.98804688 37.245625 -27 38 C-27 39.32 -27 40.64 -27 42 C-28.25229664 46.88395691 -30.90001132 49.18628228 -35 52 C-37.875 52.3125 -37.875 52.3125 -40 52 C-40.33 52.66 -40.66 53.32 -41 54 C-43.64 54 -46.28 54 -49 54 C-49 53.34 -49 52.68 -49 52 C-49.886875 52.061875 -50.77375 52.12375 -51.6875 52.1875 C-55.47510708 51.97310715 -56.92627993 51.15160405 -60 49 C-61.5778125 48.0409375 -61.5778125 48.0409375 -63.1875 47.0625 C-66.03383471 44.97518788 -66.78609691 44.18224129 -68 41 C-68.23046875 38.4921875 -68.23046875 38.4921875 -68.1875 35.875 C-68.17783203 34.57175781 -68.17783203 34.57175781 -68.16796875 33.2421875 C-68 31 -68 31 -67 29 C-66.34 29 -65.68 29 -65 29 C-64.63648438 28.07574219 -64.63648438 28.07574219 -64.265625 27.1328125 C-62.71180026 24.51433007 -61.54195788 24.00507819 -58.75 22.875 C-57.94433594 22.54371094 -57.13867188 22.21242188 -56.30859375 21.87109375 C-53.56393995 20.83546296 -50.78275106 19.92758369 -48 19 C-47.01 18.505 -46.02 18.01 -45 17.5 C-41.50906153 15.75453077 -37.96135456 14 -34 14 C-33.566875 13.525625 -33.13375 13.05125 -32.6875 12.5625 C-30.54424581 10.57800538 -28.82400804 10.56480161 -26 10 C-25.484375 9.484375 -24.96875 8.96875 -24.4375 8.4375 C-23.963125 7.963125 -23.48875 7.48875 -23 7 C-21.68 7 -20.36 7 -19 7 C-18.67 6.01 -18.34 5.02 -18 4 C-15.625 2.9375 -15.625 2.9375 -13 2 C-8.74087527 -0.83941649 -4.9984397 -0.40297498 0 0 Z M-50 31 C-50.66 32.65 -51.32 34.3 -52 36 C-49.525 36.99 -49.525 36.99 -47 38 C-46.30840599 36.15274948 -46.30840599 36.15274948 -46 34 C-46.66 33.01 -47.32 32.02 -48 31 C-48.66 31 -49.32 31 -50 31 Z M-23 51 C-22 53 -22 53 -22 53 Z " fill="#070707" transform="translate(690,88)"/>
<path d="M0 0 C2.75 0 2.75 0 6 1 C7.80126868 3.45683245 8.83417227 6.19911097 10 9 C10.71971121 10.42149367 11.4485901 11.83839077 12.1875 13.25 C13.51001735 15.80019282 14.49605235 18.15846387 15 21 C14 22 14 22 11.93359375 22.09765625 C11.10988281 22.08605469 10.28617187 22.07445312 9.4375 22.0625 C8.61121094 22.05347656 7.78492188 22.04445312 6.93359375 22.03515625 C5.97646484 22.01775391 5.97646484 22.01775391 5 22 C4.4375 20.0625 4.4375 20.0625 4 18 C4.495 17.505 4.495 17.505 5 17 C4.01 17 3.02 17 2 17 C2.2784375 17.9590625 2.2784375 17.9590625 2.5625 18.9375 C2.706875 19.618125 2.85125 20.29875 3 21 C1.13559425 22.86440575 -1.8824617 22.17374427 -4.375 22.1875 C-6.11910156 22.20876953 -6.11910156 22.20876953 -7.8984375 22.23046875 C-11 22 -11 22 -14 20 C-14.66 20.66 -15.32 21.32 -16 22 C-18.1640625 22.1953125 -18.1640625 22.1953125 -20.625 22.125 C-21.44226563 22.10695312 -22.25953125 22.08890625 -23.1015625 22.0703125 C-23.72804688 22.04710937 -24.35453125 22.02390625 -25 22 C-25.5625 20.0625 -25.5625 20.0625 -26 18 C-25.67 17.67 -25.34 17.34 -25 17 C-24.76572222 14.98405418 -24.58663876 12.961526 -24.4375 10.9375 C-24.35371094 9.83277344 -24.26992188 8.72804687 -24.18359375 7.58984375 C-24.09271484 6.30787109 -24.09271484 6.30787109 -24 5 C-24.66 5 -25.32 5 -26 5 C-26.33 6.32 -26.66 7.64 -27 9 C-28.32 9 -29.64 9 -31 9 C-31.33 8.34 -31.66 7.68 -32 7 C-32.33 10.3 -32.66 13.6 -33 17 C-32.01 17.33 -31.02 17.66 -30 18 C-30.33 19.32 -30.66 20.64 -31 22 C-33.97 22 -36.94 22 -40 22 C-40.33 20.68 -40.66 19.36 -41 18 C-40.67 17.67 -40.34 17.34 -40 17 C-39.92820036 15.48071962 -39.91607993 13.95832518 -39.9375 12.4375 C-39.94652344 11.61121094 -39.95554687 10.78492188 -39.96484375 9.93359375 C-39.97644531 9.29550781 -39.98804688 8.65742188 -40 8 C-41.65 8.33 -43.3 8.66 -45 9 C-45 6.36 -45 3.72 -45 1 C-40.21284377 0.92584832 -35.42602173 0.87139796 -30.63842773 0.83520508 C-29.00978777 0.82011757 -27.38118844 0.79964494 -25.75268555 0.77368164 C-23.41184465 0.73729551 -21.07154081 0.7202738 -18.73046875 0.70703125 C-18.00224411 0.69154739 -17.27401947 0.67606354 -16.52372742 0.66011047 C-11.5025022 0.65843845 -11.5025022 0.65843845 -9.03637695 2.3347168 C-7.41703925 4.93671973 -7.69457675 7.00685218 -8 10 C-9 12.375 -9 12.375 -10 14 C-7.32752366 16.34287418 -7.32752366 16.34287418 -4 17 C-3.814375 15.9790625 -3.814375 15.9790625 -3.625 14.9375 C-2.90902473 11.57241624 -1.94499736 8.30749075 -1 5 C-0.64628502 3.33753959 -0.30404678 1.67225729 0 0 Z M-18 5 C-18 6.32 -18 7.64 -18 9 C-16.68 8.67 -15.36 8.34 -14 8 C-14.33 7.01 -14.66 6.02 -15 5 C-15.99 5 -16.98 5 -18 5 Z M-18 15 C-18 15.66 -18 16.32 -18 17 C-17.34 16.67 -16.68 16.34 -16 16 C-16.66 15.67 -17.32 15.34 -18 15 Z " fill="#000000" transform="translate(418,171)"/>
<path d="M0 0 C3.66464055 0.4952217 5.70832354 1.0208206 8 4 C8.33 4.99 8.66 5.98 9 7 C9.66 5.02 10.32 3.04 11 1 C12.65 1 14.3 1 16 1 C16.99 2.98 17.98 4.96 19 7 C18.814375 6.195625 18.62875 5.39125 18.4375 4.5625 C18.293125 3.716875 18.14875 2.87125 18 2 C19 1 19 1 21.95922852 0.88647461 C23.25272217 0.89171143 24.54621582 0.89694824 25.87890625 0.90234375 C26.90889992 0.90446617 26.90889992 0.90446617 27.95970154 0.90663147 C30.16067801 0.91224521 32.36155409 0.92479993 34.5625 0.9375 C36.05143083 0.94251324 37.54036324 0.94707645 39.02929688 0.95117188 C42.68623075 0.96221907 46.34310558 0.97949287 50 1 C50 2.32 50 3.64 50 5 C49.34 5 48.68 5 48 5 C48 8.96 48 12.92 48 17 C48.66 17 49.32 17 50 17 C50 18.65 50 20.3 50 22 C43.07 22 36.14 22 29 22 C28.505 19.525 28.505 19.525 28 17 C28.66 17 29.32 17 30 17 C30 13.04 30 9.08 30 5 C28.35 5 26.7 5 25 5 C23.68 10.28 22.36 15.56 21 21 C19.35 21.33 17.7 21.66 16 22 C14.515 18.535 14.515 18.535 13 15 C12.34 17.31 11.68 19.62 11 22 C9.35 22 7.7 22 6 22 C5.49339844 20.28490234 5.49339844 20.28490234 4.9765625 18.53515625 C4.52644693 17.04414843 4.07590397 15.55326959 3.625 14.0625 C3.29242188 12.93038086 3.29242188 12.93038086 2.953125 11.77539062 C2.36037548 9.83152088 1.68548828 7.91313548 1 6 C0.34 5.67 -0.32 5.34 -1 5 C-0.67 3.35 -0.34 1.7 0 0 Z M36 5 C36 6.32 36 7.64 36 9 C37.98 9 39.96 9 42 9 C42 7.68 42 6.36 42 5 C38.95086772 3.98888907 38.95086772 3.98888907 36 5 Z M36 13 C36 14.32 36 15.64 36 17 C38.475 17.495 38.475 17.495 41 18 C41.33 16.35 41.66 14.7 42 13 C40.02 13 38.04 13 36 13 Z " fill="#000000" transform="translate(240,171)"/>
<path d="M0 0 C3.8704158 0.26389199 5.53051923 0.50443697 8.25 3.375 C10.125 6.1875 10.125 6.1875 12 9 C13.32 6.36 14.64 3.72 16 1 C24.58 1 33.16 1 42 1 C42 3.31 42 5.62 42 8 C41.01 8.33 40.02 8.66 39 9 C39.495 10.485 39.495 10.485 40 12 C39 13 39 13 36.4375 13.0625 C35.633125 13.041875 34.82875 13.02125 34 13 C34 14.32 34 15.64 34 17 C35.32 17 36.64 17 38 17 C38.495 15.515 38.495 15.515 39 14 C40.32 14 41.64 14 43 14 C43.125 19.75 43.125 19.75 42 22 C28 22 14 22 0 22 C-0.5625 20.0625 -0.5625 20.0625 -1 18 C-0.67 17.67 -0.34 17.34 0 17 C0.23427778 14.98405418 0.41336124 12.961526 0.5625 10.9375 C0.64628906 9.83277344 0.73007812 8.72804687 0.81640625 7.58984375 C0.87699219 6.73519531 0.93757812 5.88054687 1 5 C0.34 5 -0.32 5 -1 5 C-0.67 3.35 -0.34 1.7 0 0 Z M24 3 C24 3.66 24 4.32 24 5 C23.34 5 22.68 5 22 5 C22 8.96 22 12.92 22 17 C22.66 17 23.32 17 24 17 C24.33 17.66 24.66 18.32 25 19 C25.99 18.34 26.98 17.68 28 17 C28.36498034 14.10391601 28.36498034 14.10391601 28.1875 10.875 C28.16042969 9.77929688 28.13335938 8.68359375 28.10546875 7.5546875 C28.07066406 6.71164063 28.03585937 5.86859375 28 5 C26.68 4.34 25.36 3.68 24 3 Z M34 5 C34 6.32 34 7.64 34 9 C35.32 8.67 36.64 8.34 38 8 C37.67 7.01 37.34 6.02 37 5 C36.01 5 35.02 5 34 5 Z M6 15 C7 17 7 17 7 17 Z M15 15 C16 17 16 17 16 17 Z " fill="#000000" transform="translate(519,171)"/>
<path d="M0 0 C2.43816585 -0.0809723 4.87364384 -0.14046972 7.3125 -0.1875 C8.34793945 -0.22520508 8.34793945 -0.22520508 9.40429688 -0.26367188 C14.47884786 -0.33721609 14.47884786 -0.33721609 16.9921875 1.2890625 C18.72816474 4.23618664 17.75353478 6.81196825 17 10 C16.34 10.66 15.68 11.32 15 12 C16.74934898 14.08333079 16.74934898 14.08333079 19 16 C20.32 16 21.64 16 23 16 C23 12.04 23 8.08 23 4 C22.01 3.67 21.02 3.34 20 3 C20 2.01 20 1.02 20 0 C25.61 0 31.22 0 37 0 C37 2.31 37 4.62 37 7 C36.01 7.33 35.02 7.66 34 8 C34 9.32 34 10.64 34 12 C32.35 12 30.7 12 29 12 C29 13.32 29 14.64 29 16 C29.99 15.67 30.98 15.34 32 15 C32.33 14.34 32.66 13.68 33 13 C34.65 13 36.3 13 38 13 C37.125 19.875 37.125 19.875 36 21 C32.54885297 21.25146124 29.08422797 21.18522419 25.625 21.1875 C24.65304687 21.19974609 23.68109375 21.21199219 22.6796875 21.22460938 C21.27976562 21.22750977 21.27976562 21.22750977 19.8515625 21.23046875 C18.56499756 21.23663208 18.56499756 21.23663208 17.25244141 21.24291992 C15 21 15 21 12 19 C11.34 19.66 10.68 20.32 10 21 C7.8359375 21.1953125 7.8359375 21.1953125 5.375 21.125 C4.55773437 21.10695312 3.74046875 21.08890625 2.8984375 21.0703125 C2.27195312 21.04710937 1.64546875 21.02390625 1 21 C0.67 19.35 0.34 17.7 0 16 C0.66 16 1.32 16 2 16 C2 12.04 2 8.08 2 4 C1.34 4 0.68 4 0 4 C0 2.68 0 1.36 0 0 Z M8 4 C8 5.32 8 6.64 8 8 C8.99 8 9.98 8 11 8 C10.67 6.68 10.34 5.36 10 4 C9.34 4 8.68 4 8 4 Z M29 4 C29 5.32 29 6.64 29 8 C30.32 7.67 31.64 7.34 33 7 C32.34 6.01 31.68 5.02 31 4 C30.34 4 29.68 4 29 4 Z M8 14 C9 16 9 16 9 16 Z " fill="#000000" transform="translate(310,172)"/>
<path d="M0 0 C11.88 0 23.76 0 36 0 C36 2.31 36 4.62 36 7 C35.01 7.33 34.02 7.66 33 8 C33 9.32 33 10.64 33 12 C31.35 12 29.7 12 28 12 C28 13.32 28 14.64 28 16 C28.99 15.67 29.98 15.34 31 15 C31.33 14.34 31.66 13.68 32 13 C33.65 13 35.3 13 37 13 C36.125 19.875 36.125 19.875 35 21 C32.46950598 21.07313567 29.96695163 21.09247527 27.4375 21.0625 C26.72658203 21.05798828 26.01566406 21.05347656 25.28320312 21.04882812 C23.52209987 21.03700864 21.76103964 21.01907263 20 21 C19.67 19.68 19.34 18.36 19 17 C19.99 16.67 20.98 16.34 22 16 C22 12.04 22 8.08 22 4 C21.34 4 20.68 4 20 4 C19.34 5.32 18.68 6.64 18 8 C16.68 7.67 15.36 7.34 14 7 C13.9727585 8.41655793 13.95349533 9.83327045 13.9375 11.25 C13.92589844 12.03890625 13.91429687 12.8278125 13.90234375 13.640625 C13.91917899 16.00234701 13.91917899 16.00234701 14.56640625 18.234375 C14.70949219 18.81703125 14.85257813 19.3996875 15 20 C14 21 14 21 11.93359375 21.09765625 C11.10988281 21.08605469 10.28617188 21.07445312 9.4375 21.0625 C8.61121094 21.05347656 7.78492188 21.04445312 6.93359375 21.03515625 C5.97646484 21.01775391 5.97646484 21.01775391 5 21 C4.4375 19.0625 4.4375 19.0625 4 17 C4.33 16.67 4.66 16.34 5 16 C5.07179964 14.48071962 5.08392007 12.95832518 5.0625 11.4375 C5.05347656 10.61121094 5.04445313 9.78492188 5.03515625 8.93359375 C5.02355469 8.29550781 5.01195312 7.65742188 5 7 C4.0409375 7.2784375 4.0409375 7.2784375 3.0625 7.5625 C2.381875 7.706875 1.70125 7.85125 1 8 C0.67 7.67 0.34 7.34 0 7 C0 4.69 0 2.38 0 0 Z M28 4 C28 5.32 28 6.64 28 8 C29.32 7.67 30.64 7.34 32 7 C31.34 6.01 30.68 5.02 30 4 C29.34 4 28.68 4 28 4 Z " fill="#000000" transform="translate(624,172)"/>
<path d="M0 0 C11.88 0 23.76 0 36 0 C36 2.31 36 4.62 36 7 C35.01 7.33 34.02 7.66 33 8 C33 9.32 33 10.64 33 12 C31.35 12 29.7 12 28 12 C28 13.32 28 14.64 28 16 C28.99 15.67 29.98 15.34 31 15 C31.33 14.34 31.66 13.68 32 13 C33.65 13 35.3 13 37 13 C36.125 19.875 36.125 19.875 35 21 C32.46950598 21.07313567 29.96695163 21.09247527 27.4375 21.0625 C26.72658203 21.05798828 26.01566406 21.05347656 25.28320312 21.04882812 C23.52209987 21.03700864 21.76103964 21.01907263 20 21 C19.67 19.68 19.34 18.36 19 17 C19.99 16.67 20.98 16.34 22 16 C22 12.04 22 8.08 22 4 C21.34 4 20.68 4 20 4 C19.34 5.32 18.68 6.64 18 8 C16.68 7.67 15.36 7.34 14 7 C13.9727585 8.41655793 13.95349533 9.83327045 13.9375 11.25 C13.92589844 12.03890625 13.91429687 12.8278125 13.90234375 13.640625 C13.91917899 16.00234701 13.91917899 16.00234701 14.56640625 18.234375 C14.70949219 18.81703125 14.85257812 19.3996875 15 20 C14 21 14 21 11.93359375 21.09765625 C11.10988281 21.08605469 10.28617187 21.07445312 9.4375 21.0625 C8.61121094 21.05347656 7.78492188 21.04445312 6.93359375 21.03515625 C5.97646484 21.01775391 5.97646484 21.01775391 5 21 C4.4375 19.0625 4.4375 19.0625 4 17 C4.33 16.67 4.66 16.34 5 16 C5.07179964 14.48071962 5.08392007 12.95832518 5.0625 11.4375 C5.05347656 10.61121094 5.04445313 9.78492188 5.03515625 8.93359375 C5.02355469 8.29550781 5.01195312 7.65742188 5 7 C4.0409375 7.2784375 4.0409375 7.2784375 3.0625 7.5625 C2.381875 7.706875 1.70125 7.85125 1 8 C0.67 7.67 0.34 7.34 0 7 C0 4.69 0 2.38 0 0 Z M28 4 C28 5.32 28 6.64 28 8 C29.32 7.67 30.64 7.34 32 7 C31.34 6.01 30.68 5.02 30 4 C29.34 4 28.68 4 28 4 Z " fill="#000000" transform="translate(432,172)"/>
<path d="M0 0 C1.98 0 3.96 0 6 0 C6 28.38 6 56.76 6 86 C4.02 86 2.04 86 0 86 C0 57.62 0 29.24 0 0 Z " fill="#000000" transform="translate(98,15)"/>
<path d="M0 0 C1.98 0 3.96 0 6 0 C6 28.05 6 56.1 6 85 C4.02 85 2.04 85 0 85 C0 56.95 0 28.9 0 0 Z " fill="#000000" transform="translate(97,118)"/>
<path d="M0 0 C28.05 0 56.1 0 85 0 C85 1.98 85 3.96 85 6 C56.95 6 28.9 6 0 6 C0 4.02 0 2.04 0 0 Z " fill="#000000" transform="translate(109,107)"/>
<path d="M0 0 C1.98 0 3.96 0 6 0 C4.0240259 16.63357301 -2.97583928 32.09812962 -16 43 C-26.71478438 51.35971532 -39.22659696 57.26487314 -53 57 C-53 55.35 -53 53.7 -53 52 C-51.99195312 51.71253906 -50.98390625 51.42507812 -49.9453125 51.12890625 C-49.30368164 50.94473145 -48.66205078 50.76055664 -48.00097656 50.57080078 C-46.16715413 50.04768257 -44.32982736 49.53688977 -42.4921875 49.02734375 C-27.50599551 44.5120656 -15.84347138 36.54864164 -7.8125 22.8125 C-4.04566058 15.60111759 -1.91648744 7.87467611 0 0 Z " fill="#000000" transform="translate(158,115)"/>
<path d="M0 0 C11.91653928 -1.10851528 24.50174397 4.85674009 33.66015625 12.10546875 C36.19590816 14.32759826 38.61412893 16.61821433 41 19 C41.6496875 19.63808594 42.299375 20.27617188 42.96875 20.93359375 C51.91303308 30.36824323 58 44.91987 58 58 C56.02 58 54.04 58 52 58 C51.67128906 56.47632812 51.67128906 56.47632812 51.3359375 54.921875 C47.76367091 39.08720926 41.5089716 24.79215312 27.4921875 15.57421875 C21.35677632 11.82655352 14.98677798 8.77675233 8 7 C7.23300781 6.79761719 6.46601562 6.59523438 5.67578125 6.38671875 C3.78929539 5.90275117 1.89535131 5.44799213 0 5 C0 3.35 0 1.7 0 0 Z " fill="#000000" transform="translate(106,47)"/>
<path d="M0 0 C1.98 0 3.96 0 6 0 C6.20753906 0.92039062 6.41507813 1.84078125 6.62890625 2.7890625 C11.02739245 20.86150372 18.17488516 33.64585343 34 44 C41.058987 48.18968653 48.85201839 50.95538697 57 52 C57 53.98 57 55.96 57 58 C44.55473357 57.35627932 33.61546767 52.83835153 24 45 C23.15695313 44.34257812 22.31390625 43.68515625 21.4453125 43.0078125 C8.00539904 31.85554389 2.01454418 16.91156828 0 0 Z " fill="#000000" transform="translate(38,114)"/>
<path d="M0 0 C0 1.65 0 3.3 0 5 C-0.93199219 5.20753906 -1.86398438 5.41507813 -2.82421875 5.62890625 C-19.65680327 9.69663901 -33.7243885 17.4843026 -43.46875 32.26171875 C-47.79722894 40.00218747 -50.38119186 48.3173018 -52 57 C-53.98 57 -55.96 57 -58 57 C-55.81017631 38.86041573 -48.27101781 23.69966325 -34 12 C-24.11173325 5.2721478 -12.31083559 -1.14519401 0 0 Z " fill="#000000" transform="translate(96,47)"/>
<path d="M0 0 C28.05 0 56.1 0 85 0 C85 1.65 85 3.3 85 5 C56.95 5 28.9 5 0 5 C0 3.35 0 1.7 0 0 Z " fill="#000000" transform="translate(7,106)"/>
<path d="M0 0 C3.63 0 7.26 0 11 0 C11 1.32 11 2.64 11 4 C10.34 4 9.68 4 9 4 C9 5.32 9 6.64 9 8 C10.65 8 12.3 8 14 8 C14 6.68 14 5.36 14 4 C13.34 4 12.68 4 12 4 C12 2.68 12 1.36 12 0 C15.63 0 19.26 0 23 0 C22.67 1.32 22.34 2.64 22 4 C21.34 4 20.68 4 20 4 C20 7.96 20 11.92 20 16 C20.99 16.33 21.98 16.66 23 17 C22.67 18.32 22.34 19.64 22 21 C18.7 21 15.4 21 12 21 C12.58803797 17.97580475 13.22678118 14.98241547 14 12 C12.35 12 10.7 12 9 12 C9 13.32 9 14.64 9 16 C9.66 16 10.32 16 11 16 C10.67 17.65 10.34 19.3 10 21 C7.03 21 4.06 21 1 21 C0.67 19.68 0.34 18.36 0 17 C0.99 16.67 1.98 16.34 3 16 C3 12.04 3 8.08 3 4 C2.01 3.67 1.02 3.34 0 3 C0 2.01 0 1.02 0 0 Z " fill="#000000" transform="translate(681,172)"/>
<path d="M0 0 C3.23238414 0.07696153 5.33227795 0.37438655 7.734375 2.625 C9.21851673 4.37770071 10.63844334 6.15079362 12 8 C12.33 7.01 12.66 6.02 13 5 C12.34 5 11.68 5 11 5 C11 3.68 11 2.36 11 1 C13.97 1 16.94 1 20 1 C20 2.32 20 3.64 20 5 C19.34 5 18.68 5 18 5 C18 10.28 18 15.56 18 21 C16.68 21.33 15.36 21.66 14 22 C11.69 19.03 9.38 16.06 7 13 C7.185625 14.299375 7.37125 15.59875 7.5625 16.9375 C7.87890625 19.15234375 7.87890625 19.15234375 8 21 C7 22 7 22 3.4375 22.0625 C2.303125 22.041875 1.16875 22.02125 0 22 C-0.5625 20.0625 -0.5625 20.0625 -1 18 C-0.67 17.67 -0.34 17.34 0 17 C0.23427778 14.98405418 0.41336124 12.961526 0.5625 10.9375 C0.64628906 9.83277344 0.73007812 8.72804687 0.81640625 7.58984375 C0.87699219 6.73519531 0.93757812 5.88054687 1 5 C0.34 5 -0.32 5 -1 5 C-0.67 3.35 -0.34 1.7 0 0 Z " fill="#000000" transform="translate(706,171)"/>
<path d="M0 0 C2.5625 1.6875 2.5625 1.6875 4 4 C3.7 8.3 3.7 8.3 2 10 C0.33382885 10.04063832 -1.33388095 10.042721 -3 10 C-3.33 8.68 -3.66 7.36 -4 6 C-4.99 6.33 -5.98 6.66 -7 7 C-8.03321725 10.28750944 -8.20141923 11.57797876 -6.6875 14.75 C-5.19565595 17.08851102 -5.19565595 17.08851102 -3 18 C-3 17.01 -3 16.02 -3 15 C-3.66 15 -4.32 15 -5 15 C-5 13.68 -5 12.36 -5 11 C-1.7 11 1.6 11 5 11 C5 12.32 5 13.64 5 15 C4.34 15 3.68 15 3 15 C3 16.98 3 18.96 3 21 C-0.69725375 22.84862688 -4.96461442 22.47587094 -9 22 C-11.93423195 20.20353146 -13.47205355 19.0558929 -15 16 C-15.16796875 13.9765625 -15.16796875 13.9765625 -15.1875 11.625 C-15.20167969 10.85414063 -15.21585938 10.08328125 -15.23046875 9.2890625 C-14.85992182 5.60871499 -13.71491438 3.58875302 -10.875 1.25 C-6.84841192 -0.50069047 -4.38965922 -0.48773991 0 0 Z " fill="#000000" transform="translate(805,171)"/>
<path d="M0 0 C1.625 1.3125 1.625 1.3125 2.5 3.75 C2.625 6.3125 2.625 6.3125 0.625 9.3125 C-2 9.5 -2 9.5 -4.375 9.3125 C-4.705 7.9925 -5.035 6.6725 -5.375 5.3125 C-6.365 5.3125 -7.355 5.3125 -8.375 5.3125 C-9.77435013 8.11120027 -9.62765405 10.21748792 -9.375 13.3125 C-7.82993534 15.34917615 -6.65353844 16.17323078 -4.375 17.3125 C-4.375 16.3225 -4.375 15.3325 -4.375 14.3125 C-5.035 14.3125 -5.695 14.3125 -6.375 14.3125 C-6.375 12.9925 -6.375 11.6725 -6.375 10.3125 C-3.075 10.3125 0.225 10.3125 3.625 10.3125 C3.625 11.6325 3.625 12.9525 3.625 14.3125 C2.965 14.3125 2.305 14.3125 1.625 14.3125 C1.625 16.2925 1.625 18.2725 1.625 20.3125 C-0.82471624 21.53735812 -2.51734461 21.47972808 -5.25 21.5 C-6.54550781 21.52126953 -6.54550781 21.52126953 -7.8671875 21.54296875 C-10.56611813 21.29493618 -12.11285306 20.78632301 -14.375 19.3125 C-16.76098167 15.73352749 -17.16079503 13.59659945 -17.375 9.3125 C-16.19986646 5.3953882 -15.23598819 3.05390649 -12.125 0.375 C-7.93695302 -1.24310906 -4.30278511 -1.24554306 0 0 Z " fill="#000000" transform="translate(486.375,171.6875)"/>
<path d="M0 0 C3.7160027 1.93878402 5.24257608 3.91145591 6.5 7.8125 C7.37767415 12.2505504 6.29806494 15.0932896 4 19 C2.12419887 21.15369759 0.93437761 21.88055379 -1.89453125 22.2421875 C-5.61673842 22.36649126 -9.01284027 22.433982 -12 20 C-15.03689175 15.70646338 -15.49895621 12.18624551 -14.6953125 7.125 C-12.35954758 -0.01351751 -6.44995363 -0.92142195 0 0 Z M-6 5 C-8.4282022 6.99557113 -8.4282022 6.99557113 -8.3125 10.9375 C-8.25612142 13.76155426 -8.23113287 14.69182284 -6.5 17 C-6.005 17.33 -5.51 17.66 -5 18 C-1.87802522 16.6910428 -1.87802522 16.6910428 0 14 C0.25860135 9.94857881 0.30441554 8.45662331 -2 5 C-3.32 5 -4.64 5 -6 5 Z " fill="#000000" transform="translate(782,171)"/>
<path d="M0 0 C3.7160027 1.93878402 5.24257608 3.91145591 6.5 7.8125 C7.37767415 12.2505504 6.29806494 15.0932896 4 19 C2.12419887 21.15369759 0.93437761 21.88055379 -1.89453125 22.2421875 C-5.61673842 22.36649126 -9.01284027 22.433982 -12 20 C-15.03689175 15.70646338 -15.49895621 12.18624551 -14.6953125 7.125 C-12.35954758 -0.01351751 -6.44995363 -0.92142195 0 0 Z M-6 5 C-8.4282022 6.99557113 -8.4282022 6.99557113 -8.3125 10.9375 C-8.25612142 13.76155426 -8.23113287 14.69182284 -6.5 17 C-6.005 17.33 -5.51 17.66 -5 18 C-1.87802522 16.6910428 -1.87802522 16.6910428 0 14 C0.25860135 9.94857881 0.30441554 8.45662331 -2 5 C-3.32 5 -4.64 5 -6 5 Z " fill="#000000" transform="translate(742,171)"/>
<path d="M0 0 C2.5 1.625 2.5 1.625 4 4 C3.625 7.0625 3.625 7.0625 3 10 C3.99 11.485 3.99 11.485 5 13 C4.80915727 16.05348373 4.60786858 18.2013542 2.73046875 20.66796875 C0.52073879 22.36891213 -0.73811226 22.3723409 -3.5 22.3125 C-4.2734375 22.30863281 -5.046875 22.30476563 -5.84375 22.30078125 C-8 22 -8 22 -11 20 C-11.3125 17 -11.3125 17 -11 14 C-10.34 13.34 -9.68 12.68 -9 12 C-9.66 11.01 -10.32 10.02 -11 9 C-10.8125 5.4375 -10.8125 5.4375 -10 2 C-6.2794164 -0.48038907 -4.40203429 -0.46337203 0 0 Z M-5 5 C-4.34 5.66 -3.68 6.32 -3 7 C-3 6.34 -3 5.68 -3 5 C-3.66 5 -4.32 5 -5 5 Z M-4 14 C-4.33 14.99 -4.66 15.98 -5 17 C-4.01 17.33 -3.02 17.66 -2 18 C-2.33 16.68 -2.66 15.36 -3 14 C-3.33 14 -3.66 14 -4 14 Z " fill="#000000" transform="translate(611,171)"/>
<path d="M0 0 C3 2 3 2 3.8125 3.9375 C4 6 4 6 2 9 C2.99 10.485 2.99 10.485 4 12 C4.65882353 18.14901961 4.65882353 18.14901961 2.5 20.9375 C-1.2166944 22.51709512 -3.96135341 22.32052751 -8 22 C-11 20 -11 20 -11.875 18.125 C-12 16 -12 16 -10.5625 13.75 C-10.046875 13.1725 -9.53125 12.595 -9 12 C-9.66 11.34 -10.32 10.68 -11 10 C-11.375 6.5625 -11.375 6.5625 -11 3 C-7.99064212 -0.73160377 -4.53131954 -0.41193814 0 0 Z M-4 14 C-4.33 14.99 -4.66 15.98 -5 17 C-4.01 17 -3.02 17 -2 17 C-2.33 16.01 -2.66 15.02 -3 14 C-3.33 14 -3.66 14 -4 14 Z " fill="#000000" transform="translate(368,171)"/>
<path d="M0 0 C5.61 0 11.22 0 17 0 C17 2.31 17 4.62 17 7 C16.01 7.33 15.02 7.66 14 8 C14 9.32 14 10.64 14 12 C12.35 12 10.7 12 9 12 C9 13.32 9 14.64 9 16 C9.99 15.67 10.98 15.34 12 15 C12.33 14.34 12.66 13.68 13 13 C14.65 13 16.3 13 18 13 C17.125 19.875 17.125 19.875 16 21 C13.46950598 21.07313567 10.96695163 21.09247527 8.4375 21.0625 C7.72658203 21.05798828 7.01566406 21.05347656 6.28320312 21.04882812 C4.52209987 21.03700864 2.76103964 21.01907263 1 21 C0.67 19.68 0.34 18.36 0 17 C0.99 16.67 1.98 16.34 3 16 C3 12.04 3 8.08 3 4 C2.01 3.67 1.02 3.34 0 3 C0 2.01 0 1.02 0 0 Z M9 4 C9 5.32 9 6.64 9 8 C10.32 7.67 11.64 7.34 13 7 C12.34 6.01 11.68 5.02 11 4 C10.34 4 9.68 4 9 4 Z " fill="#000000" transform="translate(291,172)"/>
<path d="M0 0 C5.28 0 10.56 0 16 0 C16 2.64 16 5.28 16 8 C15.01 8.495 15.01 8.495 14 9 C14 9.99 14 10.98 14 12 C12.02 12 10.04 12 8 12 C8 13.32 8 14.64 8 16 C9.32 16 10.64 16 12 16 C12.33 15.01 12.66 14.02 13 13 C14.32 13 15.64 13 17 13 C17.04241723 15.33294775 17.04092937 17.66702567 17 20 C16 21 16 21 12.62109375 21.09765625 C11.22652923 21.09098369 9.83198257 21.07902532 8.4375 21.0625 C7.72658203 21.05798828 7.01566406 21.05347656 6.28320312 21.04882812 C4.52209987 21.03700864 2.76103964 21.01907263 1 21 C0.67 19.35 0.34 17.7 0 16 C0.66 16 1.32 16 2 16 C2 12.04 2 8.08 2 4 C1.34 4 0.68 4 0 4 C0 2.68 0 1.36 0 0 Z M8 4 C8 5.32 8 6.64 8 8 C9.32 7.67 10.64 7.34 12 7 C11.67 6.01 11.34 5.02 11 4 C10.01 4 9.02 4 8 4 Z " fill="#000000" transform="translate(563,172)"/>
<path d="M0 0 C2.5 1.1875 2.5 1.1875 4 3 C4.375 5.5625 4.375 5.5625 4 8 C2 10 2 10 -0.625 10.125 C-1.40875 10.08375 -2.1925 10.0425 -3 10 C-3.33 9.01 -3.66 8.02 -4 7 C-3.67 6.67 -3.34 6.34 -3 6 C-3.99 6 -4.98 6 -6 6 C-6.75427297 10.97906259 -6.75427297 10.97906259 -7 16 C-3.16774573 16.08912219 0.26562152 15.87867729 4 15 C3.6875 17.375 3.6875 17.375 3 20 C-0.70807155 22.4720477 -3.70057834 22.65499002 -8 22 C-11.7160027 20.06121598 -13.24257608 18.08854409 -14.5 14.1875 C-15.37767415 9.7494496 -14.29806494 6.9067104 -12 3 C-8.72294578 -0.76254374 -4.67926455 -0.69997195 0 0 Z " fill="#000000" transform="translate(676,171)"/>
<path d="M0 0 C5.53846154 0.61538462 5.53846154 0.61538462 7.875 2.5625 C8.431875 3.2740625 8.431875 3.2740625 9 4 C9 3.01 9 2.02 9 1 C12.3 1 15.6 1 19 1 C19 2.32 19 3.64 19 5 C18.01 5.33 17.02 5.66 16 6 C13.87522317 9.59577618 12.60711481 12.87161932 12 17 C12.66 17 13.32 17 14 17 C13.67 18.65 13.34 20.3 13 22 C10.03 22 7.06 22 4 22 C3.67 20.68 3.34 19.36 3 18 C3.99 17.67 4.98 17.34 6 17 C5.43221352 15.39026493 4.8450789 13.78734673 4.25 12.1875 C3.92515625 11.29417969 3.6003125 10.40085938 3.265625 9.48046875 C1.87603729 6.75704839 0.55673068 5.61675616 -2 4 C-1.34 2.68 -0.68 1.36 0 0 Z " fill="#000000" transform="translate(811,171)"/>
<path d="M0 0 C5.53846154 0.61538462 5.53846154 0.61538462 7.875 2.5625 C8.431875 3.2740625 8.431875 3.2740625 9 4 C9 3.01 9 2.02 9 1 C12.3 1 15.6 1 19 1 C19 2.32 19 3.64 19 5 C18.01 5.33 17.02 5.66 16 6 C13.87522317 9.59577618 12.60711481 12.87161932 12 17 C12.66 17 13.32 17 14 17 C13.67 18.65 13.34 20.3 13 22 C10.03 22 7.06 22 4 22 C3.67 20.68 3.34 19.36 3 18 C3.99 17.67 4.98 17.34 6 17 C5.43221352 15.39026493 4.8450789 13.78734673 4.25 12.1875 C3.92515625 11.29417969 3.6003125 10.40085938 3.265625 9.48046875 C1.87603729 6.75704839 0.55673068 5.61675616 -2 4 C-1.34 2.68 -0.68 1.36 0 0 Z " fill="#000000" transform="translate(491,171)"/>
<path d="M0 0 C5.94 0 11.88 0 18 0 C18 2.64 18 5.28 18 8 C15.525 7.505 15.525 7.505 13 7 C12.67 9.97 12.34 12.94 12 16 C12.66 16 13.32 16 14 16 C14.33 16.99 14.66 17.98 15 19 C14.67 19.66 14.34 20.32 14 21 C10.7 21 7.4 21 4 21 C3.67 19.68 3.34 18.36 3 17 C3.99 16.67 4.98 16.34 6 16 C5.67 13.03 5.34 10.06 5 7 C3.35 7.33 1.7 7.66 0 8 C0 5.36 0 2.72 0 0 Z " fill="#000000" transform="translate(581,172)"/>
<path d="M0 0 C3.3 0 6.6 0 10 0 C10 1.32 10 2.64 10 4 C9.34 4 8.68 4 8 4 C8 7.96 8 11.92 8 16 C9.32 16 10.64 16 12 16 C12 15.01 12 14.02 12 13 C13.65 13 15.3 13 17 13 C17.125 18.75 17.125 18.75 16 21 C10.72 21 5.44 21 0 21 C-0.33 19.68 -0.66 18.36 -1 17 C-0.01 16.67 0.98 16.34 2 16 C2 12.04 2 8.08 2 4 C1.01 3.67 0.02 3.34 -1 3 C-0.67 2.01 -0.34 1.02 0 0 Z " fill="#000000" transform="translate(750,172)"/>
<path d="M0 0 C3.0625 0.3125 3.0625 0.3125 4.9375 1.5 C6.46909584 3.96757108 6.49072025 5.45769831 6.0625 8.3125 C4.9375 10.125 4.9375 10.125 3.0625 11.3125 C0.0625 11.75 0.0625 11.75 -2.9375 11.3125 C-4.875 9.625 -4.875 9.625 -5.9375 7.3125 C-5.61764525 2.8345335 -4.76027546 0.50641228 0 0 Z " fill="#000000" transform="translate(100.9375,103.6875)"/>
<path d="M0 0 C0.33 0 0.66 0 1 0 C1 2.97 1 5.94 1 9 C0.67 9 0.34 9 0 9 C0 6.03 0 3.06 0 0 Z " fill="#000000" transform="translate(846,102)"/>
<path d="M0 0 C0.33 0 0.66 0 1 0 C1 2.64 1 5.28 1 8 C0.67 8 0.34 8 0 8 C0 5.36 0 2.72 0 0 Z " fill="#000000" transform="translate(621,121)"/>
<path d="M0 0 C2.64 0 5.28 0 8 0 C8 0.33 8 0.66 8 1 C5.36 1 2.72 1 0 1 C0 0.67 0 0.34 0 0 Z " fill="#000000" transform="translate(835,73)"/>
<path d="M0 0 C0.33 0 0.66 0 1 0 C1 1.65 1 3.3 1 5 C0.67 5 0.34 5 0 5 C0 3.35 0 1.7 0 0 Z " fill="#000000" transform="translate(772,98)"/>
<path d="M0 0 C1 4 1 4 1 4 Z " fill="#000000" transform="translate(703,142)"/>
<path d="" fill="#000000" transform="translate(0,0)"/>
<path d="" fill="#000000" transform="translate(0,0)"/>
<path d="" fill="#000000" transform="translate(0,0)"/>
<path d="" fill="#000000" transform="translate(0,0)"/>
<path d="" fill="#000000" transform="translate(0,0)"/>
<path d="" fill="#000000" transform="translate(0,0)"/>
<path d="" fill="#000000" transform="translate(0,0)"/>
<path d="" fill="#000000" transform="translate(0,0)"/>
<path d="" fill="#000000" transform="translate(0,0)"/>
<path d="" fill="#000000" transform="translate(0,0)"/>
<path d="" fill="#000000" transform="translate(0,0)"/>
<path d="" fill="#000000" transform="translate(0,0)"/>
<path d="" fill="#000000" transform="translate(0,0)"/>
<path d="" fill="#000000" transform="translate(0,0)"/>
<path d="" fill="#000000" transform="translate(0,0)"/>
<path d="" fill="#000000" transform="translate(0,0)"/>
<path d="" fill="#000000" transform="translate(0,0)"/>
<path d="" fill="#000000" transform="translate(0,0)"/>
<path d="" fill="#000000" transform="translate(0,0)"/>
<path d="" fill="#000000" transform="translate(0,0)"/>
<path d="" fill="#000000" transform="translate(0,0)"/>
</svg>
