<?xml version="1.0" encoding="UTF-8"?>
<svg version="1.1" xmlns="http://www.w3.org/2000/svg" width="2406" height="625">
<path d="M0 0 C1.00869141 -0.01353516 2.01738281 -0.02707031 3.05664062 -0.04101562 C12.74203367 0.01599454 20.63185536 2.21763707 28.8125 7.375 C28.8125 8.035 28.8125 8.695 28.8125 9.375 C30.1325 9.375 31.4525 9.375 32.8125 9.375 C32.8125 10.035 32.8125 10.695 32.8125 11.375 C33.4725 11.375 34.1325 11.375 34.8125 11.375 C34.8125 12.035 34.8125 12.695 34.8125 13.375 C35.988125 13.8390625 35.988125 13.8390625 37.1875 14.3125 C39.8125 15.375 39.8125 15.375 41.8125 16.375 C41.8125 17.035 41.8125 17.695 41.8125 18.375 C42.4725 18.375 43.1325 18.375 43.8125 18.375 C43.8125 19.035 43.8125 19.695 43.8125 20.375 C44.4725 20.375 45.1325 20.375 45.8125 20.375 C45.8125 21.035 45.8125 21.695 45.8125 22.375 C46.4725 22.375 47.1325 22.375 47.8125 22.375 C47.8125 23.035 47.8125 23.695 47.8125 24.375 C48.4725 24.375 49.1325 24.375 49.8125 24.375 C52.8125 28.75961538 52.8125 28.75961538 52.8125 31.375 C53.4725 31.375 54.1325 31.375 54.8125 31.375 C54.8125 32.695 54.8125 34.015 54.8125 35.375 C55.4725 35.375 56.1325 35.375 56.8125 35.375 C59.33305505 39.15583258 59.27952178 42.99218019 58.8125 47.375 C57.8125 49.875 57.8125 49.875 56.8125 51.375 C56.1525 51.375 55.4925 51.375 54.8125 51.375 C54.8125 52.695 54.8125 54.015 54.8125 55.375 C54.1525 55.375 53.4925 55.375 52.8125 55.375 C52.69003906 56.09042969 52.56757812 56.80585938 52.44140625 57.54296875 C51.80114625 60.42612713 50.87698444 62.96092473 49.75 65.6875 C49.38777344 66.57050781 49.02554687 67.45351562 48.65234375 68.36328125 C48.37519531 69.02714844 48.09804687 69.69101563 47.8125 70.375 C47.1525 70.375 46.4925 70.375 45.8125 70.375 C45.8125 71.695 45.8125 73.015 45.8125 74.375 C45.1525 74.375 44.4925 74.375 43.8125 74.375 C43.8125 75.695 43.8125 77.015 43.8125 78.375 C43.1525 78.375 42.4925 78.375 41.8125 78.375 C41.8125 79.365 41.8125 80.355 41.8125 81.375 C41.1525 81.375 40.4925 81.375 39.8125 81.375 C39.8125 82.695 39.8125 84.015 39.8125 85.375 C39.1525 85.375 38.4925 85.375 37.8125 85.375 C37.68875 86.591875 37.565 87.80875 37.4375 89.0625 C37.02358694 92.43979059 36.26676549 95.27256695 34.8125 98.375 C34.1525 98.375 33.4925 98.375 32.8125 98.375 C32.8125 99.695 32.8125 101.015 32.8125 102.375 C32.1525 102.375 31.4925 102.375 30.8125 102.375 C30.8125 104.025 30.8125 105.675 30.8125 107.375 C30.1525 107.375 29.4925 107.375 28.8125 107.375 C28.8125 108.695 28.8125 110.015 28.8125 111.375 C28.1525 111.375 27.4925 111.375 26.8125 111.375 C26.85375 112.1175 26.895 112.86 26.9375 113.625 C26.8125 116.375 26.8125 116.375 24.8125 120.375 C45.9325 120.375 67.0525 120.375 88.8125 120.375 C88.8125 116.415 88.8125 112.455 88.8125 108.375 C89.1425 108.045 89.4725 107.715 89.8125 107.375 C89.97291193 104.27414779 90.07213402 101.19312421 90.12890625 98.08984375 C90.1600779 96.69361534 90.1600779 96.69361534 90.19187927 95.2691803 C90.25747931 92.28369818 90.31630802 89.29812516 90.375 86.3125 C90.4181753 84.29361024 90.46178925 82.2747298 90.50585938 80.25585938 C90.61317129 75.29566703 90.71440888 70.33538291 90.8125 65.375 C91.4725 65.375 92.1325 65.375 92.8125 65.375 C92.8125 58.445 92.8125 51.515 92.8125 44.375 C93.4725 44.375 94.1325 44.375 94.8125 44.375 C95.1425 42.725 95.4725 41.075 95.8125 39.375 C96.4725 39.375 97.1325 39.375 97.8125 39.375 C97.8125 38.715 97.8125 38.055 97.8125 37.375 C98.4725 37.375 99.1325 37.375 99.8125 37.375 C99.8125 36.055 99.8125 34.735 99.8125 33.375 C100.4725 33.375 101.1325 33.375 101.8125 33.375 C101.8125 32.715 101.8125 32.055 101.8125 31.375 C102.4725 31.375 103.1325 31.375 103.8125 31.375 C103.8125 30.715 103.8125 30.055 103.8125 29.375 C105.45703125 27.6484375 105.45703125 27.6484375 107.625 25.75 C108.33269531 25.11835938 109.04039062 24.48671875 109.76953125 23.8359375 C111.8125 22.375 111.8125 22.375 114.8125 22.375 C114.8125 21.715 114.8125 21.055 114.8125 20.375 C115.4725 20.375 116.1325 20.375 116.8125 20.375 C116.8125 19.715 116.8125 19.055 116.8125 18.375 C117.4725 18.375 118.1325 18.375 118.8125 18.375 C118.8125 17.715 118.8125 17.055 118.8125 16.375 C120.1325 16.375 121.4525 16.375 122.8125 16.375 C122.8125 15.715 122.8125 15.055 122.8125 14.375 C124.4625 14.045 126.1125 13.715 127.8125 13.375 C127.8125 12.715 127.8125 12.055 127.8125 11.375 C129.1325 11.375 130.4525 11.375 131.8125 11.375 C131.8125 10.715 131.8125 10.055 131.8125 9.375 C133.1325 9.375 134.4525 9.375 135.8125 9.375 C135.8125 8.715 135.8125 8.055 135.8125 7.375 C136.8025 7.375 137.7925 7.375 138.8125 7.375 C138.8125 6.715 138.8125 6.055 138.8125 5.375 C142.98987474 3.78361915 146.34410785 3.16221942 150.8125 3.375 C150.8125 2.715 150.8125 2.055 150.8125 1.375 C168.64226217 -0.23239881 168.64226217 -0.23239881 176.76953125 3.54296875 C180.97105754 5.25410661 185.42327738 6.25586729 189.8125 7.375 C189.8125 8.035 189.8125 8.695 189.8125 9.375 C191.4625 9.375 193.1125 9.375 194.8125 9.375 C194.8125 10.035 194.8125 10.695 194.8125 11.375 C196.7925 11.375 198.7725 11.375 200.8125 11.375 C200.8125 12.035 200.8125 12.695 200.8125 13.375 C201.84375 13.49875 202.875 13.6225 203.9375 13.75 C207.43366846 14.31389814 210.49647627 15.16182059 213.8125 16.375 C213.8125 17.035 213.8125 17.695 213.8125 18.375 C215.1325 18.375 216.4525 18.375 217.8125 18.375 C217.8125 19.035 217.8125 19.695 217.8125 20.375 C218.555 20.519375 219.2975 20.66375 220.0625 20.8125 C222.33277739 21.27687492 224.57009479 21.79363569 226.8125 22.375 C226.8125 23.035 226.8125 23.695 226.8125 24.375 C228.1325 24.375 229.4525 24.375 230.8125 24.375 C230.8125 25.035 230.8125 25.695 230.8125 26.375 C231.4725 26.4575 232.1325 26.54 232.8125 26.625 C236.80289163 27.62259791 240.19799643 29.44666683 243.8125 31.375 C243.8125 32.035 243.8125 32.695 243.8125 33.375 C245.1325 33.375 246.4525 33.375 247.8125 33.375 C247.8125 34.035 247.8125 34.695 247.8125 35.375 C248.8025 35.375 249.7925 35.375 250.8125 35.375 C250.8125 36.035 250.8125 36.695 250.8125 37.375 C252.1325 37.375 253.4525 37.375 254.8125 37.375 C254.8125 38.035 254.8125 38.695 254.8125 39.375 C259.2675 40.86 259.2675 40.86 263.8125 42.375 C263.8125 43.035 263.8125 43.695 263.8125 44.375 C264.4725 44.375 265.1325 44.375 265.8125 44.375 C265.8125 45.035 265.8125 45.695 265.8125 46.375 C267.1325 46.375 268.4525 46.375 269.8125 46.375 C269.8125 47.035 269.8125 47.695 269.8125 48.375 C270.4725 48.375 271.1325 48.375 271.8125 48.375 C271.8125 49.035 271.8125 49.695 271.8125 50.375 C273.1325 50.375 274.4525 50.375 275.8125 50.375 C275.8125 51.035 275.8125 51.695 275.8125 52.375 C276.4725 52.375 277.1325 52.375 277.8125 52.375 C277.8125 53.035 277.8125 53.695 277.8125 54.375 C280.2875 54.87 280.2875 54.87 282.8125 55.375 C282.8125 56.035 282.8125 56.695 282.8125 57.375 C283.740625 57.5915625 283.740625 57.5915625 284.6875 57.8125 C286.8125 58.375 286.8125 58.375 288.8125 59.375 C288.8125 60.035 288.8125 60.695 288.8125 61.375 C289.4725 61.375 290.1325 61.375 290.8125 61.375 C290.8125 62.035 290.8125 62.695 290.8125 63.375 C291.8025 63.375 292.7925 63.375 293.8125 63.375 C293.8125 64.035 293.8125 64.695 293.8125 65.375 C294.4725 65.375 295.1325 65.375 295.8125 65.375 C295.8125 66.035 295.8125 66.695 295.8125 67.375 C296.51375 67.601875 297.215 67.82875 297.9375 68.0625 C301.55378535 69.71341288 303.90019976 71.6658835 306.8125 74.375 C306.8125 75.035 306.8125 75.695 306.8125 76.375 C307.4725 76.375 308.1325 76.375 308.8125 76.375 C308.8125 77.035 308.8125 77.695 308.8125 78.375 C309.4725 78.375 310.1325 78.375 310.8125 78.375 C310.8125 82.665 310.8125 86.955 310.8125 91.375 C310.1525 91.375 309.4925 91.375 308.8125 91.375 C308.8125 93.025 308.8125 94.675 308.8125 96.375 C308.1525 96.375 307.4925 96.375 306.8125 96.375 C306.4825 97.695 306.1525 99.015 305.8125 100.375 C305.1525 100.375 304.4925 100.375 303.8125 100.375 C303.8125 101.035 303.8125 101.695 303.8125 102.375 C302.56514433 103.0259259 301.31448168 103.67051669 300.0625 104.3125 C299.36640625 104.67214844 298.6703125 105.03179687 297.953125 105.40234375 C294.25245069 107.08385452 291.11196487 107.49705095 287.0625 107.4375 C286.26328125 107.42847656 285.4640625 107.41945313 284.640625 107.41015625 C284.03734375 107.39855469 283.4340625 107.38695312 282.8125 107.375 C282.8125 108.035 282.8125 108.695 282.8125 109.375 C281.1625 109.375 279.5125 109.375 277.8125 109.375 C277.8125 108.715 277.8125 108.055 277.8125 107.375 C276.4925 107.045 275.1725 106.715 273.8125 106.375 C273.8125 105.715 273.8125 105.055 273.8125 104.375 C273.1525 104.375 272.4925 104.375 271.8125 104.375 C271.8125 103.715 271.8125 103.055 271.8125 102.375 C271.1525 102.375 270.4925 102.375 269.8125 102.375 C269.8125 101.715 269.8125 101.055 269.8125 100.375 C267.3375 99.385 267.3375 99.385 264.8125 98.375 C264.8125 97.715 264.8125 97.055 264.8125 96.375 C264.1525 96.375 263.4925 96.375 262.8125 96.375 C262.8125 95.715 262.8125 95.055 262.8125 94.375 C261.86375 94.065625 260.915 93.75625 259.9375 93.4375 C256.8125 92.375 256.8125 92.375 254.8125 91.375 C254.8125 90.715 254.8125 90.055 254.8125 89.375 C254.1525 89.375 253.4925 89.375 252.8125 89.375 C252.8125 88.715 252.8125 88.055 252.8125 87.375 C251.8225 87.375 250.8325 87.375 249.8125 87.375 C249.8125 86.715 249.8125 86.055 249.8125 85.375 C249.1525 85.375 248.4925 85.375 247.8125 85.375 C247.8125 84.715 247.8125 84.055 247.8125 83.375 C246.4925 83.375 245.1725 83.375 243.8125 83.375 C243.8125 82.715 243.8125 82.055 243.8125 81.375 C243.11125 81.106875 242.41 80.83875 241.6875 80.5625 C238.6475176 79.3068551 235.7397226 77.87264877 232.8125 76.375 C232.8125 75.715 232.8125 75.055 232.8125 74.375 C231.884375 74.1584375 231.884375 74.1584375 230.9375 73.9375 C228.8125 73.375 228.8125 73.375 226.8125 72.375 C226.8125 71.715 226.8125 71.055 226.8125 70.375 C225.4925 70.375 224.1725 70.375 222.8125 70.375 C222.8125 69.715 222.8125 69.055 222.8125 68.375 C222.26078125 68.25253906 221.7090625 68.13007813 221.140625 68.00390625 C218.51658745 67.29506389 216.0788047 66.33888744 213.5625 65.3125 C212.67046875 64.95027344 211.7784375 64.58804688 210.859375 64.21484375 C210.18390625 63.93769531 209.5084375 63.66054687 208.8125 63.375 C208.8125 62.715 208.8125 62.055 208.8125 61.375 C207.4925 61.375 206.1725 61.375 204.8125 61.375 C204.8125 60.715 204.8125 60.055 204.8125 59.375 C203.4925 59.375 202.1725 59.375 200.8125 59.375 C200.8125 58.715 200.8125 58.055 200.8125 57.375 C199.4925 57.375 198.1725 57.375 196.8125 57.375 C196.8125 56.715 196.8125 56.055 196.8125 55.375 C196.12800781 55.25253906 195.44351563 55.13007813 194.73828125 55.00390625 C191.42057311 54.29075403 188.23813463 53.32646135 185 52.3125 C183.83855469 51.95027344 182.67710937 51.58804688 181.48046875 51.21484375 C180.60003906 50.93769531 179.71960937 50.66054687 178.8125 50.375 C178.8125 49.715 178.8125 49.055 178.8125 48.375 C176.8325 48.375 174.8525 48.375 172.8125 48.375 C172.8125 47.715 172.8125 47.055 172.8125 46.375 C170.8325 46.375 168.8525 46.375 166.8125 46.375 C166.8125 45.715 166.8125 45.055 166.8125 44.375 C165.1625 44.375 163.5125 44.375 161.8125 44.375 C161.8125 43.715 161.8125 43.055 161.8125 42.375 C158.1825 42.375 154.5525 42.375 150.8125 42.375 C150.8125 43.035 150.8125 43.695 150.8125 44.375 C150.1525 44.375 149.4925 44.375 148.8125 44.375 C148.82410156 45.22964844 148.83570312 46.08429688 148.84765625 46.96484375 C148.86119141 48.62193359 148.86119141 48.62193359 148.875 50.3125 C148.88660156 51.41464844 148.89820312 52.51679688 148.91015625 53.65234375 C148.8125 56.375 148.8125 56.375 147.8125 57.375 C147.60361292 59.37103206 147.44474523 61.37242941 147.3125 63.375 C146.92361111 69.26388889 146.92361111 69.26388889 145.8125 70.375 C145.60353683 72.18311184 145.44469639 73.99716032 145.3125 75.8125 C144.92242366 81.15515267 144.92242366 81.15515267 143.8125 83.375 C143.5849985 85.24556791 143.40287189 87.12185958 143.25 89 C143.16621094 90.00289063 143.08242187 91.00578125 142.99609375 92.0390625 C142.93550781 92.80992187 142.87492187 93.58078125 142.8125 94.375 C142.1525 94.375 141.4925 94.375 140.8125 94.375 C140.8125 98.665 140.8125 102.955 140.8125 107.375 C140.1525 107.375 139.4925 107.375 138.8125 107.375 C138.8125 111.665 138.8125 115.955 138.8125 120.375 C194.2525 120.375 249.6925 120.375 306.8125 120.375 C307.4725 117.405 308.1325 114.435 308.8125 111.375 C311.28156968 108.90593032 312.67523769 109.13852882 316.04481506 109.12275696 C317.1073777 109.13353523 317.1073777 109.13353523 318.19140625 109.14453125 C318.91867416 109.14498947 319.64594208 109.14544769 320.39524841 109.1459198 C321.93270499 109.14894164 323.47015852 109.15682595 325.00756836 109.16918945 C327.36908735 109.18745427 329.73021461 109.1896991 332.09179688 109.18945312 C333.58333674 109.19436797 335.07487394 109.20019614 336.56640625 109.20703125 C337.63200523 109.20870049 337.63200523 109.20870049 338.71913147 109.21040344 C343.69644635 109.25894635 343.69644635 109.25894635 344.8125 110.375 C346.37086106 110.5598903 347.93490167 110.69786649 349.5 110.8125 C353.53330314 111.17127302 357.02118637 111.87842883 360.8125 113.375 C360.8125 114.035 360.8125 114.695 360.8125 115.375 C362.1325 115.375 363.4525 115.375 364.8125 115.375 C364.8125 116.035 364.8125 116.695 364.8125 117.375 C370.4590705 119.77148881 375.73619381 119.65440278 381.7578125 119.6484375 C383.90755741 119.66871402 386.05729696 119.68956455 388.20703125 119.7109375 C391.58224025 119.73359321 394.95723779 119.75003406 398.33251953 119.75585938 C401.59966784 119.76535828 404.86587444 119.79908819 408.1328125 119.8359375 C409.14328644 119.83089203 410.15376038 119.82584656 411.19485474 119.82064819 C418.17350094 119.91897684 418.17350094 119.91897684 421.45556641 122.26123047 C423.07351665 124.78159988 423.23706612 126.1573759 423.0625 129.125 C423.02640625 129.92421875 422.9903125 130.7234375 422.953125 131.546875 C422.88351562 132.45179688 422.88351562 132.45179688 422.8125 133.375 C422.1525 133.375 421.4925 133.375 420.8125 133.375 C420.8125 134.695 420.8125 136.015 420.8125 137.375 C420.1525 137.375 419.4925 137.375 418.8125 137.375 C418.4825 138.695 418.1525 140.015 417.8125 141.375 C417.1525 141.375 416.4925 141.375 415.8125 141.375 C415.8125 142.035 415.8125 142.695 415.8125 143.375 C400.6325 143.705 385.4525 144.035 369.8125 144.375 C369.4825 145.035 369.1525 145.695 368.8125 146.375 C368.1525 146.375 367.4925 146.375 366.8125 146.375 C366.8125 147.695 366.8125 149.015 366.8125 150.375 C366.1525 150.375 365.4925 150.375 364.8125 150.375 C364.8125 151.695 364.8125 153.015 364.8125 154.375 C364.1525 154.375 363.4925 154.375 362.8125 154.375 C362.4825 156.685 362.1525 158.995 361.8125 161.375 C361.1525 161.375 360.4925 161.375 359.8125 161.375 C359.8125 162.695 359.8125 164.015 359.8125 165.375 C359.1525 165.375 358.4925 165.375 357.8125 165.375 C357.8125 166.695 357.8125 168.015 357.8125 169.375 C357.1525 169.375 356.4925 169.375 355.8125 169.375 C355.8125 170.365 355.8125 171.355 355.8125 172.375 C355.1525 172.375 354.4925 172.375 353.8125 172.375 C353.8125 173.695 353.8125 175.015 353.8125 176.375 C353.1525 176.375 352.4925 176.375 351.8125 176.375 C351.69938477 176.93654785 351.58626953 177.4980957 351.46972656 178.07666016 C350.72676506 180.6748175 349.57062164 182.76626419 348.296875 185.1484375 C344.99994271 192.28072195 345.06435639 199.27183443 345.0625 207 C345.03405844 209.7006844 344.99327199 212.4010083 344.953125 215.1015625 C344.94829102 216.28314941 344.94345703 217.46473633 344.93847656 218.68212891 C344.8125 221.375 344.8125 221.375 343.8125 222.375 C343.66584394 224.65346058 343.58497035 226.93620652 343.53125 229.21875 C343.51284058 229.90304077 343.49443115 230.58733154 343.47546387 231.2923584 C343.41654861 233.48648259 343.36379816 235.68068526 343.3125 237.875 C343.24504139 240.76058934 343.17137387 243.64591825 343.09375 246.53125 C343.06345703 247.81837891 343.03316406 249.10550781 343.00195312 250.43164062 C342.8125 253.375 342.8125 253.375 341.8125 254.375 C341.66584394 256.65346058 341.58497035 258.93620652 341.53125 261.21875 C341.51284058 261.90304077 341.49443115 262.58733154 341.47546387 263.2923584 C341.41654861 265.48648259 341.36379816 267.68068526 341.3125 269.875 C341.24504139 272.76058934 341.17137387 275.64591825 341.09375 278.53125 C341.04831055 280.46194336 341.04831055 280.46194336 341.00195312 282.43164062 C340.8125 285.375 340.8125 285.375 339.8125 286.375 C339.65361908 288.66488781 339.56111927 290.95943441 339.49609375 293.25390625 C339.47531265 293.9405687 339.45453156 294.62723114 339.43312073 295.33470154 C339.36755857 297.53552935 339.30870985 299.73647975 339.25 301.9375 C339.20682108 303.42644514 339.163207 304.91537773 339.11914062 306.40429688 C339.0118707 310.06106553 338.91062228 313.71797318 338.8125 317.375 C338.1525 317.375 337.4925 317.375 336.8125 317.375 C336.8125 320.675 336.8125 323.975 336.8125 327.375 C329.02197053 331.63124832 322.58918929 331.89825294 313.8125 331.6875 C312.57371094 331.67783203 311.33492187 331.66816406 310.05859375 331.65820312 C300.98111364 331.54361364 300.98111364 331.54361364 299.8125 330.375 C298.78125 330.25125 297.75 330.1275 296.6875 330 C292.64342867 329.34773043 289.5400687 328.0316972 285.8125 326.375 C283.03361387 325.68359478 283.03361387 325.68359478 280.8125 325.375 C280.8125 324.715 280.8125 324.055 280.8125 323.375 C279.8225 323.375 278.8325 323.375 277.8125 323.375 C277.8125 322.715 277.8125 322.055 277.8125 321.375 C276.4925 321.375 275.1725 321.375 273.8125 321.375 C273.8125 320.715 273.8125 320.055 273.8125 319.375 C272.905 319.1275 271.9975 318.88 271.0625 318.625 C267.57819485 317.28488263 266.07614767 316.30768132 263.8125 313.375 C263.7890625 310.67578125 263.7890625 310.67578125 264.4375 307.6875 C264.76234375 306.11162109 264.76234375 306.11162109 265.09375 304.50390625 C265.44953125 302.95509766 265.44953125 302.95509766 265.8125 301.375 C266.0084375 300.45589844 266.204375 299.53679687 266.40625 298.58984375 C266.85375828 296.51353696 267.32986764 294.44342441 267.8125 292.375 C268.4725 292.375 269.1325 292.375 269.8125 292.375 C269.8125 289.405 269.8125 286.435 269.8125 283.375 C270.4725 283.375 271.1325 283.375 271.8125 283.375 C271.8125 280.735 271.8125 278.095 271.8125 275.375 C272.4725 275.375 273.1325 275.375 273.8125 275.375 C273.8125 272.405 273.8125 269.435 273.8125 266.375 C274.4725 266.375 275.1325 266.375 275.8125 266.375 C275.8125 263.735 275.8125 261.095 275.8125 258.375 C276.4725 258.375 277.1325 258.375 277.8125 258.375 C277.78414062 257.22128906 277.75578125 256.06757813 277.7265625 254.87890625 C277.72846407 250.55949805 278.33532552 246.53649945 279.1875 242.3125 C279.31382812 241.64412109 279.44015625 240.97574219 279.5703125 240.28710938 C280.42350899 235.89741341 281.53279215 231.65367538 282.8125 227.375 C283.4725 227.375 284.1325 227.375 284.8125 227.375 C284.8125 226.055 284.8125 224.735 284.8125 223.375 C285.4725 223.375 286.1325 223.375 286.8125 223.375 C286.8125 222.715 286.8125 222.055 286.8125 221.375 C287.4725 221.375 288.1325 221.375 288.8125 221.375 C288.8125 220.715 288.8125 220.055 288.8125 219.375 C289.4725 219.375 290.1325 219.375 290.8125 219.375 C290.956875 218.735625 291.10125 218.09625 291.25 217.4375 C291.8125 215.375 291.8125 215.375 292.8125 214.375 C292.1525 214.045 291.4925 213.715 290.8125 213.375 C290.8125 214.035 290.8125 214.695 290.8125 215.375 C289.8225 215.375 288.8325 215.375 287.8125 215.375 C287.8125 216.035 287.8125 216.695 287.8125 217.375 C286.8225 217.375 285.8325 217.375 284.8125 217.375 C284.8125 218.035 284.8125 218.695 284.8125 219.375 C283.4925 219.375 282.1725 219.375 280.8125 219.375 C280.8125 220.035 280.8125 220.695 280.8125 221.375 C279.06697527 222.21766711 277.3158792 223.04880038 275.5625 223.875 C274.58796875 224.3390625 273.6134375 224.803125 272.609375 225.28125 C269.8125 226.375 269.8125 226.375 265.8125 226.375 C265.8125 227.035 265.8125 227.695 265.8125 228.375 C264.40024074 229.05095315 262.98247095 229.71540059 261.5625 230.375 C260.77359375 230.74625 259.9846875 231.1175 259.171875 231.5 C256.8125 232.375 256.8125 232.375 252.8125 232.375 C252.8125 233.035 252.8125 233.695 252.8125 234.375 C246.12133089 237.43585395 240.17345182 239.06176801 232.8125 239.375 C232.8125 240.035 232.8125 240.695 232.8125 241.375 C230.8325 241.375 228.8525 241.375 226.8125 241.375 C226.8125 242.035 226.8125 242.695 226.8125 243.375 C224.8325 243.375 222.8525 243.375 220.8125 243.375 C220.8125 244.035 220.8125 244.695 220.8125 245.375 C219.8225 245.375 218.8325 245.375 217.8125 245.375 C217.8125 246.035 217.8125 246.695 217.8125 247.375 C217.1525 247.375 216.4925 247.375 215.8125 247.375 C215.1525 249.685 214.4925 251.995 213.8125 254.375 C213.1525 254.375 212.4925 254.375 211.8125 254.375 C212.4725 255.365 213.1325 256.355 213.8125 257.375 C213.9375 260.0625 213.9375 260.0625 213.8125 262.375 C214.4725 262.375 215.1325 262.375 215.8125 262.375 C215.8125 263.695 215.8125 265.015 215.8125 266.375 C216.4725 266.375 217.1325 266.375 217.8125 266.375 C219.2975 270.83 219.2975 270.83 220.8125 275.375 C221.4725 275.375 222.1325 275.375 222.8125 275.375 C222.8125 276.695 222.8125 278.015 222.8125 279.375 C223.4725 279.375 224.1325 279.375 224.8125 279.375 C224.8125 280.035 224.8125 280.695 224.8125 281.375 C225.4725 281.375 226.1325 281.375 226.8125 281.375 C226.8125 282.365 226.8125 283.355 226.8125 284.375 C227.4725 284.375 228.1325 284.375 228.8125 284.375 C228.8125 285.035 228.8125 285.695 228.8125 286.375 C229.4725 286.375 230.1325 286.375 230.8125 286.375 C231.080625 287.344375 231.34875 288.31375 231.625 289.3125 C232.016875 290.323125 232.40875 291.33375 232.8125 292.375 C233.8025 292.705 234.7925 293.035 235.8125 293.375 C235.8125 294.035 235.8125 294.695 235.8125 295.375 C236.4725 295.375 237.1325 295.375 237.8125 295.375 C239.8125 298.375 239.8125 298.375 239.8125 301.375 C240.4725 301.375 241.1325 301.375 241.8125 301.375 C241.8125 302.035 241.8125 302.695 241.8125 303.375 C242.4725 303.375 243.1325 303.375 243.8125 303.375 C243.8125 306.675 243.8125 309.975 243.8125 313.375 C243.1525 313.375 242.4925 313.375 241.8125 313.375 C241.4825 315.025 241.1525 316.675 240.8125 318.375 C239.8225 318.705 238.8325 319.035 237.8125 319.375 C237.8125 320.035 237.8125 320.695 237.8125 321.375 C237.1525 321.375 236.4925 321.375 235.8125 321.375 C235.6578125 322.303125 235.6578125 322.303125 235.5 323.25 C234.8125 325.375 234.8125 325.375 231.8125 327.375 C230.8225 327.375 229.8325 327.375 228.8125 327.375 C228.8125 328.035 228.8125 328.695 228.8125 329.375 C227.4925 329.375 226.1725 329.375 224.8125 329.375 C224.8125 330.035 224.8125 330.695 224.8125 331.375 C223.35513913 331.56991452 221.89655407 331.75569358 220.4375 331.9375 C219.62539062 332.04191406 218.81328125 332.14632813 217.9765625 332.25390625 C215.8125 332.375 215.8125 332.375 213.8125 331.375 C213.8125 330.715 213.8125 330.055 213.8125 329.375 C213.1525 329.375 212.4925 329.375 211.8125 329.375 C211.8125 328.715 211.8125 328.055 211.8125 327.375 C210.8225 327.375 209.8325 327.375 208.8125 327.375 C208.8125 326.715 208.8125 326.055 208.8125 325.375 C208.1525 325.375 207.4925 325.375 206.8125 325.375 C206.8125 324.715 206.8125 324.055 206.8125 323.375 C206.1525 323.375 205.4925 323.375 204.8125 323.375 C204.8125 322.715 204.8125 322.055 204.8125 321.375 C204.27625 321.2925 203.74 321.21 203.1875 321.125 C199.89755507 320.08607002 197.52785195 318.48694041 194.8125 316.375 C193.9375 314.125 193.9375 314.125 193.8125 312.375 C193.1525 312.375 192.4925 312.375 191.8125 312.375 C191.8125 311.715 191.8125 311.055 191.8125 310.375 C191.1525 310.375 190.4925 310.375 189.8125 310.375 C189.8125 309.715 189.8125 309.055 189.8125 308.375 C189.1525 308.375 188.4925 308.375 187.8125 308.375 C187.8125 307.715 187.8125 307.055 187.8125 306.375 C186.4925 306.045 185.1725 305.715 183.8125 305.375 C183.8125 304.715 183.8125 304.055 183.8125 303.375 C183.1525 303.375 182.4925 303.375 181.8125 303.375 C181.8125 302.715 181.8125 302.055 181.8125 301.375 C181.1525 301.375 180.4925 301.375 179.8125 301.375 C179.4825 300.055 179.1525 298.735 178.8125 297.375 C178.1525 297.375 177.4925 297.375 176.8125 297.375 C176.8125 296.715 176.8125 296.055 176.8125 295.375 C176.1525 295.375 175.4925 295.375 174.8125 295.375 C174.8125 294.715 174.8125 294.055 174.8125 293.375 C174.1525 293.375 173.4925 293.375 172.8125 293.375 C172.8125 292.385 172.8125 291.395 172.8125 290.375 C172.1525 290.375 171.4925 290.375 170.8125 290.375 C170.8125 289.715 170.8125 289.055 170.8125 288.375 C170.1525 288.375 169.4925 288.375 168.8125 288.375 C167.5234375 286.73046875 167.5234375 286.73046875 166.1875 284.5625 C165.74148438 283.85480469 165.29546875 283.14710938 164.8359375 282.41796875 C163.8125 280.375 163.8125 280.375 163.8125 277.375 C163.1525 277.375 162.4925 277.375 161.8125 277.375 C161.8125 276.055 161.8125 274.735 161.8125 273.375 C161.1525 273.375 160.4925 273.375 159.8125 273.375 C159.8125 272.055 159.8125 270.735 159.8125 269.375 C159.1525 269.375 158.4925 269.375 157.8125 269.375 C154.50093105 262.41019228 154.69943126 253.3655539 156.8125 246 C157.1425 245.13375 157.4725 244.2675 157.8125 243.375 C158.4725 243.375 159.1325 243.375 159.8125 243.375 C159.8125 241.725 159.8125 240.075 159.8125 238.375 C160.4725 238.375 161.1325 238.375 161.8125 238.375 C161.8125 236.725 161.8125 235.075 161.8125 233.375 C162.4725 233.375 163.1325 233.375 163.8125 233.375 C163.750625 232.653125 163.68875 231.93125 163.625 231.1875 C163.84996621 227.81300685 164.81119763 226.06906089 166.8125 223.375 C167.4725 223.375 168.1325 223.375 168.8125 223.375 C168.8125 222.055 168.8125 220.735 168.8125 219.375 C169.4725 219.375 170.1325 219.375 170.8125 219.375 C170.8125 218.715 170.8125 218.055 170.8125 217.375 C171.4725 217.375 172.1325 217.375 172.8125 217.375 C172.8125 216.715 172.8125 216.055 172.8125 215.375 C173.4725 215.375 174.1325 215.375 174.8125 215.375 C174.8125 214.715 174.8125 214.055 174.8125 213.375 C176.1325 213.045 177.4525 212.715 178.8125 212.375 C178.8125 211.715 178.8125 211.055 178.8125 210.375 C179.8025 210.375 180.7925 210.375 181.8125 210.375 C181.8125 209.715 181.8125 209.055 181.8125 208.375 C188.0825 208.375 194.3525 208.375 200.8125 208.375 C200.8125 207.715 200.8125 207.055 200.8125 206.375 C206.4225 206.375 212.0325 206.375 217.8125 206.375 C217.8125 205.715 217.8125 205.055 217.8125 204.375 C221.4425 204.375 225.0725 204.375 228.8125 204.375 C228.8125 203.715 228.8125 203.055 228.8125 202.375 C229.988125 202.25125 231.16375 202.1275 232.375 202 C237.56949511 201.35068811 242.39211097 199.82354391 247.375 198.25 C250.68571271 197.40727313 253.41607012 197.20932049 256.8125 197.375 C256.8125 196.715 256.8125 196.055 256.8125 195.375 C258.7925 195.375 260.7725 195.375 262.8125 195.375 C262.8125 194.715 262.8125 194.055 262.8125 193.375 C265.94748292 191.51723235 268.18721432 191.17359524 271.8125 191.375 C271.8125 190.715 271.8125 190.055 271.8125 189.375 C273.1325 189.375 274.4525 189.375 275.8125 189.375 C275.8125 188.715 275.8125 188.055 275.8125 187.375 C278.1225 187.045 280.4325 186.715 282.8125 186.375 C282.8125 185.715 282.8125 185.055 282.8125 184.375 C284.1325 184.375 285.4525 184.375 286.8125 184.375 C286.8125 183.715 286.8125 183.055 286.8125 182.375 C288.1325 182.375 289.4525 182.375 290.8125 182.375 C290.8125 181.715 290.8125 181.055 290.8125 180.375 C291.8025 180.375 292.7925 180.375 293.8125 180.375 C293.8125 178.065 293.8125 175.755 293.8125 173.375 C294.4725 173.375 295.1325 173.375 295.8125 173.375 C295.8125 170.735 295.8125 168.095 295.8125 165.375 C296.4725 165.375 297.1325 165.375 297.8125 165.375 C297.8125 162.405 297.8125 159.435 297.8125 156.375 C298.4725 156.375 299.1325 156.375 299.8125 156.375 C299.8125 153.735 299.8125 151.095 299.8125 148.375 C300.4725 148.375 301.1325 148.375 301.8125 148.375 C301.8125 146.725 301.8125 145.075 301.8125 143.375 C247.0325 143.375 192.2525 143.375 135.8125 143.375 C135.8125 145.355 135.8125 147.335 135.8125 149.375 C135.4825 149.705 135.1525 150.035 134.8125 150.375 C134.60281249 152.70486123 134.44434611 155.03944036 134.3125 157.375 C133.92361111 164.26388889 133.92361111 164.26388889 132.8125 165.375 C132.60186893 167.87916935 132.43677923 170.36640081 132.3125 172.875 C131.94763514 180.23986486 131.94763514 180.23986486 130.8125 181.375 C130.60166247 184.04560873 130.43658803 186.7002135 130.3125 189.375 C129.94763514 197.23986486 129.94763514 197.23986486 128.8125 198.375 C128.57548761 201.23377909 128.39030818 204.07383297 128.25 206.9375 C128.20681641 207.74380859 128.16363281 208.55011719 128.11914062 209.38085938 C128.01274738 211.37868805 127.91209112 213.3768207 127.8125 215.375 C127.1525 215.375 126.4925 215.375 125.8125 215.375 C125.8125 222.305 125.8125 229.235 125.8125 236.375 C125.1525 236.375 124.4925 236.375 123.8125 236.375 C123.83570312 237.63828125 123.85890625 238.9015625 123.8828125 240.203125 C124.01076671 250.62891301 123.72039785 260.9192576 122.875 271.3125 C121.41940105 289.30432023 121.15803476 307.33415286 120.8125 325.375 C120.1525 325.375 119.4925 325.375 118.8125 325.375 C118.8125 326.035 118.8125 326.695 118.8125 327.375 C118.1525 327.375 117.4925 327.375 116.8125 327.375 C116.8125 328.035 116.8125 328.695 116.8125 329.375 C112.42351729 331.50430845 108.17309599 331.84357354 103.375 332.0625 C102.19478271 332.12328735 102.19478271 332.12328735 100.99072266 332.18530273 C93.86874066 332.49110616 86.90540375 332.11621985 79.8125 331.375 C79.8125 330.715 79.8125 330.055 79.8125 329.375 C77.1725 329.375 74.5325 329.375 71.8125 329.375 C71.8125 328.715 71.8125 328.055 71.8125 327.375 C70.1625 327.375 68.5125 327.375 66.8125 327.375 C66.8125 326.715 66.8125 326.055 66.8125 325.375 C65.4925 325.375 64.1725 325.375 62.8125 325.375 C62.8125 324.715 62.8125 324.055 62.8125 323.375 C61.4925 323.375 60.1725 323.375 58.8125 323.375 C58.8125 322.715 58.8125 322.055 58.8125 321.375 C57.4925 321.375 56.1725 321.375 54.8125 321.375 C54.8125 320.715 54.8125 320.055 54.8125 319.375 C53.1625 319.045 51.5125 318.715 49.8125 318.375 C49.8125 317.715 49.8125 317.055 49.8125 316.375 C48.4925 315.715 47.1725 315.055 45.8125 314.375 C45.8125 313.055 45.8125 311.735 45.8125 310.375 C46.4725 310.375 47.1325 310.375 47.8125 310.375 C47.7815625 308.4259375 47.7815625 308.4259375 47.75 306.4375 C47.72850546 305.08334367 47.74101801 303.72743917 47.8125 302.375 C48.1425 302.045 48.4725 301.715 48.8125 301.375 C49.18010731 299.04682036 49.51491581 296.7131615 49.8125 294.375 C50.4725 294.375 51.1325 294.375 51.8125 294.375 C51.791875 293.199375 51.77125 292.02375 51.75 290.8125 C51.74302739 286.90086533 52.16999657 283.23002056 52.8125 279.375 C53.4725 279.375 54.1325 279.375 54.8125 279.375 C54.7815625 277.4259375 54.7815625 277.4259375 54.75 275.4375 C54.72850546 274.08334367 54.74101801 272.72743917 54.8125 271.375 C55.1425 271.045 55.4725 270.715 55.8125 270.375 C56.04325082 269.02752916 56.22403063 267.67122435 56.375 266.3125 C56.519375 265.013125 56.66375 263.71375 56.8125 262.375 C57.4725 262.375 58.1325 262.375 58.8125 262.375 C58.7815625 260.6734375 58.7815625 260.6734375 58.75 258.9375 C58.8125 255.375 58.8125 255.375 59.8125 254.375 C60.18010731 252.04682036 60.51491581 249.7131615 60.8125 247.375 C61.4725 247.375 62.1325 247.375 62.8125 247.375 C62.8125 244.405 62.8125 241.435 62.8125 238.375 C63.4725 238.375 64.1325 238.375 64.8125 238.375 C64.7196875 236.828125 64.7196875 236.828125 64.625 235.25 C64.60189694 228.83890091 66.19594739 222.54805324 67.8125 216.375 C68.1425 216.045 68.4725 215.715 68.8125 215.375 C69.01854085 214.04718122 69.1787959 212.71204105 69.3125 211.375 C69.70138889 207.48611111 69.70138889 207.48611111 70.8125 206.375 C71.18010731 204.04682036 71.51491581 201.7131615 71.8125 199.375 C72.4725 199.375 73.1325 199.375 73.8125 199.375 C73.8125 196.735 73.8125 194.095 73.8125 191.375 C74.4725 191.375 75.1325 191.375 75.8125 191.375 C75.8125 189.065 75.8125 186.755 75.8125 184.375 C76.4725 184.375 77.1325 184.375 77.8125 184.375 C77.8125 181.405 77.8125 178.435 77.8125 175.375 C78.4725 175.375 79.1325 175.375 79.8125 175.375 C79.7815625 173.6115625 79.7815625 173.6115625 79.75 171.8125 C79.74302739 167.90086533 80.16999657 164.23002056 80.8125 160.375 C81.4725 160.375 82.1325 160.375 82.8125 160.375 C82.8125 157.735 82.8125 155.095 82.8125 152.375 C83.4725 152.375 84.1325 152.375 84.8125 152.375 C84.8125 149.735 84.8125 147.095 84.8125 144.375 C52.6375 143.88 52.6375 143.88 19.8125 143.375 C20.1425 150.635 20.4725 157.895 20.8125 165.375 C20.75816267 170.99891371 20.66193211 176.57389181 20.4375 182.1875 C20.39255242 183.57224382 20.34828235 184.9570098 20.3046875 186.34179688 C19.95040533 196.23709467 19.95040533 196.23709467 18.8125 197.375 C18.66584394 199.65346058 18.58497035 201.93620652 18.53125 204.21875 C18.50363586 205.24518616 18.50363586 205.24518616 18.47546387 206.2923584 C18.41654861 208.48648259 18.36379816 210.68068526 18.3125 212.875 C18.24504139 215.76058934 18.17137387 218.64591825 18.09375 221.53125 C18.06345703 222.81837891 18.03316406 224.10550781 18.00195312 225.43164062 C17.8125 228.375 17.8125 228.375 16.8125 229.375 C16.65278023 231.74838639 16.5532567 234.09618272 16.49609375 236.47265625 C16.4649221 237.53594398 16.4649221 237.53594398 16.43312073 238.62071228 C16.36755402 240.89287305 16.3087077 243.16515264 16.25 245.4375 C16.20682151 246.97462183 16.16320745 248.5117315 16.11914062 250.04882812 C16.01186551 253.8240959 15.91061863 257.5994836 15.8125 261.375 C15.1525 261.375 14.4925 261.375 13.8125 261.375 C13.8125 271.935 13.8125 282.495 13.8125 293.375 C13.1525 293.375 12.4925 293.375 11.8125 293.375 C11.8125 303.935 11.8125 314.495 11.8125 325.375 C11.1525 325.375 10.4925 325.375 9.8125 325.375 C9.8125 326.035 9.8125 326.695 9.8125 327.375 C8.8225 327.375 7.8325 327.375 6.8125 327.375 C6.8125 328.035 6.8125 328.695 6.8125 329.375 C4.8325 329.375 2.8525 329.375 0.8125 329.375 C0.8125 330.035 0.8125 330.695 0.8125 331.375 C-3.33331887 331.40386751 -7.47911216 331.42175327 -11.625 331.4375 C-12.80900391 331.44587891 -13.99300781 331.45425781 -15.21289062 331.46289062 C-16.33759766 331.46611328 -17.46230469 331.46933594 -18.62109375 331.47265625 C-20.18428345 331.48051147 -20.18428345 331.48051147 -21.77905273 331.48852539 C-24.1875 331.375 -24.1875 331.375 -25.1875 330.375 C-27.1164445 330.14219635 -29.04567447 329.91140466 -30.9765625 329.6953125 C-34.16475182 329.23341935 -37.11531342 328.33505831 -40.1875 327.375 C-40.1875 326.715 -40.1875 326.055 -40.1875 325.375 C-41.5075 325.375 -42.8275 325.375 -44.1875 325.375 C-44.1875 324.715 -44.1875 324.055 -44.1875 323.375 C-44.785625 323.230625 -45.38375 323.08625 -46 322.9375 C-47.74900404 322.4877561 -49.47427023 321.94607659 -51.1875 321.375 C-51.1875 320.715 -51.1875 320.055 -51.1875 319.375 C-53.1675 319.045 -55.1475 318.715 -57.1875 318.375 C-57.1875 317.715 -57.1875 317.055 -57.1875 316.375 C-58.1775 316.375 -59.1675 316.375 -60.1875 316.375 C-60.1875 315.715 -60.1875 315.055 -60.1875 314.375 C-60.8475 314.375 -61.5075 314.375 -62.1875 314.375 C-62.04707123 312.72869672 -61.90000671 311.08295821 -61.75 309.4375 C-61.62818359 308.06271484 -61.62818359 308.06271484 -61.50390625 306.66015625 C-61.1875 304.375 -61.1875 304.375 -60.1875 303.375 C-59.98145915 302.04718122 -59.8212041 300.71204105 -59.6875 299.375 C-59.29861111 295.48611111 -59.29861111 295.48611111 -58.1875 294.375 C-57.95674918 293.02752916 -57.77596937 291.67122435 -57.625 290.3125 C-57.480625 289.013125 -57.33625 287.71375 -57.1875 286.375 C-56.5275 286.375 -55.8675 286.375 -55.1875 286.375 C-55.1875 284.065 -55.1875 281.755 -55.1875 279.375 C-54.5275 279.375 -53.8675 279.375 -53.1875 279.375 C-53.2184375 277.4259375 -53.2184375 277.4259375 -53.25 275.4375 C-53.27149454 274.08334367 -53.25898199 272.72743917 -53.1875 271.375 C-52.8575 271.045 -52.5275 270.715 -52.1875 270.375 C-51.95674918 269.02752916 -51.77596937 267.67122435 -51.625 266.3125 C-51.480625 265.013125 -51.33625 263.71375 -51.1875 262.375 C-50.5275 262.375 -49.8675 262.375 -49.1875 262.375 C-49.1875 259.735 -49.1875 257.095 -49.1875 254.375 C-48.5275 254.375 -47.8675 254.375 -47.1875 254.375 C-47.19910156 253.80652344 -47.21070313 253.23804688 -47.22265625 252.65234375 C-47.27973194 247.76829516 -47.00706772 243.18996035 -46.1875 238.375 C-45.5275 238.375 -44.8675 238.375 -44.1875 238.375 C-44.2184375 236.4259375 -44.2184375 236.4259375 -44.25 234.4375 C-44.27149454 233.08334367 -44.25898199 231.72743917 -44.1875 230.375 C-43.8575 230.045 -43.5275 229.715 -43.1875 229.375 C-42.95674918 228.02752916 -42.77596937 226.67122435 -42.625 225.3125 C-42.480625 224.013125 -42.33625 222.71375 -42.1875 221.375 C-41.5275 221.375 -40.8675 221.375 -40.1875 221.375 C-40.1875 218.405 -40.1875 215.435 -40.1875 212.375 C-39.5275 212.375 -38.8675 212.375 -38.1875 212.375 C-38.1875 209.735 -38.1875 207.095 -38.1875 204.375 C-37.5275 204.375 -36.8675 204.375 -36.1875 204.375 C-36.1875 201.405 -36.1875 198.435 -36.1875 195.375 C-35.5275 195.375 -34.8675 195.375 -34.1875 195.375 C-34.21585938 194.21871094 -34.24421875 193.06242188 -34.2734375 191.87109375 C-34.27155458 187.59215506 -33.66892131 183.61906125 -32.8125 179.4375 C-32.67602051 178.74454834 -32.53954102 178.05159668 -32.39892578 177.33764648 C-32.00390134 175.34833318 -31.59603128 173.36158348 -31.1875 171.375 C-30.98640625 170.385 -30.7853125 169.395 -30.578125 168.375 C-29.34146341 162.52896341 -29.34146341 162.52896341 -28.1875 161.375 C-27.95557135 159.86030552 -27.77534762 158.33745438 -27.625 156.8125 C-27.54121094 155.98621094 -27.45742187 155.15992188 -27.37109375 154.30859375 C-27.31050781 153.67050781 -27.24992187 153.03242188 -27.1875 152.375 C-26.5275 152.375 -25.8675 152.375 -25.1875 152.375 C-25.1875 149.735 -25.1875 147.095 -25.1875 144.375 C-118.2475 144.045 -211.3075 143.715 -307.1875 143.375 C-307.1875 142.715 -307.1875 142.055 -307.1875 141.375 C-307.8475 141.375 -308.5075 141.375 -309.1875 141.375 C-311.17134711 137.40730578 -310.51380565 132.51970514 -309.1875 128.375 C-308.5275 128.375 -307.8675 128.375 -307.1875 128.375 C-307.1875 127.715 -307.1875 127.055 -307.1875 126.375 C-306.5275 126.375 -305.8675 126.375 -305.1875 126.375 C-305.1875 125.715 -305.1875 125.055 -305.1875 124.375 C-304.5275 124.375 -303.8675 124.375 -303.1875 124.375 C-303.1875 123.715 -303.1875 123.055 -303.1875 122.375 C-302.5275 122.375 -301.8675 122.375 -301.1875 122.375 C-301.1875 121.715 -301.1875 121.055 -301.1875 120.375 C-208.1275 120.375 -115.0675 120.375 -19.1875 120.375 C-18.8575 117.075 -18.5275 113.775 -18.1875 110.375 C-17.86928204 108.49356535 -17.52481417 106.61579947 -17.125 104.75 C-16.94839844 103.91210938 -16.77179688 103.07421875 -16.58984375 102.2109375 C-16.45707031 101.60507813 -16.32429688 100.99921875 -16.1875 100.375 C-15.5275 100.375 -14.8675 100.375 -14.1875 100.375 C-14.1875 97.405 -14.1875 94.435 -14.1875 91.375 C-13.5275 91.375 -12.8675 91.375 -12.1875 91.375 C-12.2184375 89.4259375 -12.2184375 89.4259375 -12.25 87.4375 C-12.27149454 86.08334367 -12.25898199 84.72743917 -12.1875 83.375 C-11.8575 83.045 -11.5275 82.715 -11.1875 82.375 C-10.95674918 81.02752916 -10.77596937 79.67122435 -10.625 78.3125 C-10.480625 77.013125 -10.33625 75.71375 -10.1875 74.375 C-9.5275 74.375 -8.8675 74.375 -8.1875 74.375 C-8.1875 71.405 -8.1875 68.435 -8.1875 65.375 C-7.5275 65.375 -6.8675 65.375 -6.1875 65.375 C-6.22230469 64.5396875 -6.22230469 64.5396875 -6.2578125 63.6875 C-6.35430125 59.6074041 -6.23194793 56.00739497 -5.125 52.0625 C-4.23447997 48.55978789 -4.16783749 47.6051197 -5.1875 44.375 C-6.8375 45.035 -8.4875 45.695 -10.1875 46.375 C-10.1875 47.035 -10.1875 47.695 -10.1875 48.375 C-13.1875 50.375 -13.1875 50.375 -16.1875 50.375 C-16.1875 51.035 -16.1875 51.695 -16.1875 52.375 C-18.5625 55 -18.5625 55 -21.1875 57.375 C-21.8475 57.375 -22.5075 57.375 -23.1875 57.375 C-23.1875 58.035 -23.1875 58.695 -23.1875 59.375 C-24.8671875 60.8828125 -24.8671875 60.8828125 -27.0625 62.5 C-27.78179688 63.03882813 -28.50109375 63.57765625 -29.2421875 64.1328125 C-31.1875 65.375 -31.1875 65.375 -33.1875 65.375 C-33.5175 66.365 -33.8475 67.355 -34.1875 68.375 C-34.8475 68.375 -35.5075 68.375 -36.1875 68.375 C-36.496875 69.426875 -36.496875 69.426875 -36.8125 70.5 C-38.5709378 74.17673359 -40.99178141 76.84795079 -44.1875 79.375 C-44.8475 79.375 -45.5075 79.375 -46.1875 79.375 C-46.496875 79.99375 -46.80625 80.6125 -47.125 81.25 C-47.8125 82.625 -48.5 84 -49.1875 85.375 C-49.8475 85.375 -50.5075 85.375 -51.1875 85.375 C-51.1875 86.035 -51.1875 86.695 -51.1875 87.375 C-51.8475 87.375 -52.5075 87.375 -53.1875 87.375 C-53.290625 87.973125 -53.39375 88.57125 -53.5 89.1875 C-54.28574033 91.68758286 -55.15668853 92.75035082 -57.1875 94.375 C-57.8475 94.375 -58.5075 94.375 -59.1875 94.375 C-59.373125 95.24125 -59.373125 95.24125 -59.5625 96.125 C-60.19398824 98.39835767 -61.07608191 100.3003529 -62.1875 102.375 C-62.8475 102.375 -63.5075 102.375 -64.1875 102.375 C-64.1875 103.365 -64.1875 104.355 -64.1875 105.375 C-64.8475 105.375 -65.5075 105.375 -66.1875 105.375 C-66.1875 106.035 -66.1875 106.695 -66.1875 107.375 C-81.77857421 106.79309376 -81.77857421 106.79309376 -88.1875 103.375 C-89.51026056 103.00191369 -90.83982077 102.64453585 -92.1875 102.375 C-92.1875 101.715 -92.1875 101.055 -92.1875 100.375 C-95.1575 99.385 -95.1575 99.385 -98.1875 98.375 C-98.1875 97.715 -98.1875 97.055 -98.1875 96.375 C-98.8475 96.375 -99.5075 96.375 -100.1875 96.375 C-100.1875 95.715 -100.1875 95.055 -100.1875 94.375 C-101.1775 94.045 -102.1675 93.715 -103.1875 93.375 C-103.1875 92.715 -103.1875 92.055 -103.1875 91.375 C-103.8475 91.375 -104.5075 91.375 -105.1875 91.375 C-105.1875 90.715 -105.1875 90.055 -105.1875 89.375 C-105.8475 89.375 -106.5075 89.375 -107.1875 89.375 C-107.1875 88.055 -107.1875 86.735 -107.1875 85.375 C-107.8475 85.375 -108.5075 85.375 -109.1875 85.375 C-109.1875 84.055 -109.1875 82.735 -109.1875 81.375 C-109.8475 81.375 -110.5075 81.375 -111.1875 81.375 C-111.1875 77.745 -111.1875 74.115 -111.1875 70.375 C-110.5275 70.375 -109.8675 70.375 -109.1875 70.375 C-109.1875 69.715 -109.1875 69.055 -109.1875 68.375 C-108.5275 68.375 -107.8675 68.375 -107.1875 68.375 C-107.1875 67.385 -107.1875 66.395 -107.1875 65.375 C-106.5275 65.375 -105.8675 65.375 -105.1875 65.375 C-105.1875 64.715 -105.1875 64.055 -105.1875 63.375 C-104.5275 63.375 -103.8675 63.375 -103.1875 63.375 C-102.878125 62.59125 -102.56875 61.8075 -102.25 61 C-101.1875 58.375 -101.1875 58.375 -100.1875 56.375 C-99.5275 56.375 -98.8675 56.375 -98.1875 56.375 C-98.1875 55.715 -98.1875 55.055 -98.1875 54.375 C-97.5275 54.375 -96.8675 54.375 -96.1875 54.375 C-96.1875 53.715 -96.1875 53.055 -96.1875 52.375 C-95.5275 52.375 -94.8675 52.375 -94.1875 52.375 C-94.1875 51.715 -94.1875 51.055 -94.1875 50.375 C-93.5275 50.375 -92.8675 50.375 -92.1875 50.375 C-92.1875 49.715 -92.1875 49.055 -92.1875 48.375 C-91.5275 48.375 -90.8675 48.375 -90.1875 48.375 C-90.1875 47.715 -90.1875 47.055 -90.1875 46.375 C-89.5275 46.375 -88.8675 46.375 -88.1875 46.375 C-87.8575 45.385 -87.5275 44.395 -87.1875 43.375 C-81.81607143 39.375 -81.81607143 39.375 -79.1875 39.375 C-79.1875 38.715 -79.1875 38.055 -79.1875 37.375 C-78.5275 37.375 -77.8675 37.375 -77.1875 37.375 C-77.1875 36.715 -77.1875 36.055 -77.1875 35.375 C-76.5275 35.375 -75.8675 35.375 -75.1875 35.375 C-75.1875 34.715 -75.1875 34.055 -75.1875 33.375 C-74.1975 33.375 -73.2075 33.375 -72.1875 33.375 C-72.1875 32.715 -72.1875 32.055 -72.1875 31.375 C-71.5275 31.375 -70.8675 31.375 -70.1875 31.375 C-70.1875 30.715 -70.1875 30.055 -70.1875 29.375 C-64.4375 26.375 -64.4375 26.375 -62.1875 26.375 C-62.1875 25.715 -62.1875 25.055 -62.1875 24.375 C-61.5275 24.375 -60.8675 24.375 -60.1875 24.375 C-60.1875 23.715 -60.1875 23.055 -60.1875 22.375 C-59.1975 22.375 -58.2075 22.375 -57.1875 22.375 C-57.1875 21.715 -57.1875 21.055 -57.1875 20.375 C-55.2075 19.715 -53.2275 19.055 -51.1875 18.375 C-51.1875 17.715 -51.1875 17.055 -51.1875 16.375 C-49.8675 16.375 -48.5475 16.375 -47.1875 16.375 C-47.1875 15.715 -47.1875 15.055 -47.1875 14.375 C-45.5375 14.045 -43.8875 13.715 -42.1875 13.375 C-42.1875 12.715 -42.1875 12.055 -42.1875 11.375 C-40.8675 11.375 -39.5475 11.375 -38.1875 11.375 C-38.1875 10.715 -38.1875 10.055 -38.1875 9.375 C-36.8675 9.375 -35.5475 9.375 -34.1875 9.375 C-34.1875 8.715 -34.1875 8.055 -34.1875 7.375 C-30.81652617 5.87678941 -28.98307881 5.375 -25.1875 5.375 C-25.1875 4.715 -25.1875 4.055 -25.1875 3.375 C-16.79300197 0.62055534 -8.77714991 0.04855215 0 0 Z " fill="#FFFFFF" transform="translate(1983.1875,103.625)"/>
<path d="M0 0 C39.27 0 78.54 0 119 0 C117.5467923 4.35962309 116.3342972 7.17172139 114.02929688 10.94359589 C107.32988373 22.4234287 107.88385957 34.01703606 108 46.96875 C107.99246698 49.34486209 107.9814203 51.72096538 107.96704102 54.0970459 C107.93881048 60.29831451 107.95776322 66.49854045 107.98712158 72.69976807 C108.01243114 80.1682459 107.9781164 87.63666745 107.95399475 95.1051178 C107.92407711 106.40401527 107.96908446 117.70036902 108 129 C129.12 129 150.24 129 172 129 C172.11290064 110.4704129 172.11290064 110.4704129 172.1328125 91.94140625 C172.12039161 84.36854789 172.1181706 76.7967734 172.18164062 69.22412109 C172.23219731 63.10921153 172.23288234 56.99603467 172.20095444 50.88101959 C172.19724266 48.56416295 172.21061711 46.24720516 172.24249649 43.93056488 C172.44289255 28.29076995 170.18362464 17.07448514 161.89900017 3.66055679 C161 2 161 2 161 0 C200.27 0 239.54 0 280 0 C273.35213845 7.75583848 273.35213845 7.75583848 270.20439529 10.15506554 C263.3774455 15.78288315 258.37573094 20.72923954 257.23825788 29.7867291 C256.90902832 34.87676594 256.90992554 39.93538705 256.96386719 45.03369141 C256.93366168 47.32701278 256.89720014 49.62025889 256.85501099 51.91339111 C256.76150102 58.10479334 256.7627406 64.2926819 256.78752804 70.48461199 C256.80006914 75.6730148 256.7669998 80.86074197 256.73459554 86.0490278 C256.65503448 99.0015648 256.66817322 111.95190129 256.72385588 124.90445106 C256.76910476 136.10400129 256.69667099 147.29911602 256.56775865 158.4979002 C256.43584742 170.04657694 256.38504868 181.59299756 256.41408658 193.14241922 C256.42955438 199.60705168 256.41515204 206.06786 256.32118988 212.53190994 C254.41836707 242.84478177 254.41836707 242.84478177 266.69298172 269.05583763 C270.20764097 272.3887635 273.9989299 275.24666162 278.11317825 277.80216026 C278.73582943 278.19744738 279.35848061 278.59273449 280 279 C280 279.33 280 279.66 280 280 C240.73 280 201.46 280 161 280 C162.44723202 275.65830395 163.74776836 272.62488433 166.00475025 268.79881573 C171.36439047 259.39832234 171.94036684 251.42456714 171.4502964 240.77701378 C171.32848202 237.99310572 171.27034424 235.21389087 171.22843933 232.4276886 C171.10223131 224.52333676 170.89529982 216.62392953 170.57885742 208.72485352 C170.38823281 203.85574499 170.29426608 198.99206302 170.25665855 194.11948586 C170.22416497 192.28927879 170.15672986 190.45928002 170.05045509 188.63187218 C170.00083815 187.76558504 169.9512212 186.8992979 169.90010071 186.00675964 C169.84638967 185.25669238 169.79267862 184.50662512 169.73733997 183.73382854 C170.60065963 166.29734378 176.14482228 166.85517772 191 152 C157.34 152 123.68 152 89 152 C95.27 158.27 101.54 164.54 108 171 C110.34433901 182.0212139 110.34433901 182.0212139 110.04859924 185.90415955 C109.96930774 187.19385808 109.96930774 187.19385808 109.88841438 188.50961113 C109.80636411 189.83323253 109.80636411 189.83323253 109.72265625 191.18359375 C109.68407802 193.0589098 109.65561405 194.9344576 109.63658142 196.81007385 C109.56714999 201.70113098 109.39303448 206.58182047 109.18530273 211.46875 C108.8239702 220.20394617 108.61007186 228.94224257 108.47265625 237.68359375 C108.45490772 238.60421978 108.43715919 239.52484581 108.41887283 240.4733696 C108.19955209 255.13813254 110.25262977 265.86057339 119 278 C119 278.66 119 279.32 119 280 C79.73 280 40.46 280 0 280 C1.82601817 276.34796366 3.24601662 274.49705123 6.0625 271.671875 C6.85914063 270.87265625 7.65578125 270.0734375 8.4765625 269.25 C9.72566406 268.0125 9.72566406 268.0125 11 266.75 C11.83273437 265.90953125 12.66546875 265.0690625 13.5234375 264.203125 C14.71839844 263.01203125 14.71839844 263.01203125 15.9375 261.796875 C16.66839844 261.06823242 17.39929688 260.33958984 18.15234375 259.58886719 C20 258 20 258 22 258 C22.30665853 228.25872915 22.51492889 198.51798168 22.58805899 168.77522547 C22.59680092 165.25468923 22.60637164 161.73415569 22.61645508 158.21362305 C22.61844836 157.51282186 22.62044164 156.81202067 22.62249533 156.08998308 C22.65663776 144.77917962 22.75773806 133.46993318 22.88409772 122.15982684 C23.01248816 110.53281325 23.06631937 98.90718109 23.05671436 87.27945882 C23.05364412 80.75638366 23.08332394 74.23732702 23.194067 67.71510887 C25.3041979 37.87391773 25.3041979 37.87391773 14.15530872 11.63720417 C9.78143433 7.6624355 5.26814151 4.63407075 0 2 C0 1.34 0 0.68 0 0 Z " fill="#FFFFFF" transform="translate(436,162)"/>
<path d="M0 0 C5.51535464 0.36325725 10.83267913 0.13404039 16.34009838 -0.24651051 C45.64569961 -1.96755061 68.05883542 10.48367034 89.62237978 29.12011957 C114.04242145 50.83937513 129.26241241 72.41542378 131.21778613 105.64357311 C132.03191541 124.74390729 130.98004826 143.86091223 129.59618086 162.90833181 C128.33670869 180.32938031 127.68017771 197.78222744 127.09262246 215.23712319 C126.87517436 221.32980125 126.52535471 227.39564837 126.062406 233.47439331 C123.6284686 254.51140734 123.6284686 254.51140734 131.05404663 273.36068726 C135.19241387 277.85057684 139.689561 281.6081442 144.76211834 285.00039959 C145.36857095 285.46183267 145.97502356 285.92326574 146.59985352 286.39868164 C146.59985352 287.05868164 146.59985352 287.71868164 146.59985352 288.39868164 C107.32985352 288.39868164 68.05985352 288.39868164 27.59985352 288.39868164 C29.04708553 284.05698559 30.34762188 281.02356597 32.60460377 277.19749737 C37.96424398 267.79700398 38.54022036 259.82324878 38.05014992 249.17569542 C37.92833553 246.39178736 37.87019775 243.61257251 37.82829285 240.82637024 C37.70208482 232.9220184 37.49515334 225.02261117 37.17871094 217.12353516 C36.98808633 212.25442663 36.89411959 207.39074466 36.85651207 202.5181675 C36.82401849 200.68796043 36.75658337 198.85796166 36.65030861 197.03055382 C36.60069166 196.16426668 36.55107471 195.29797955 36.49995422 194.40544128 C36.44624318 193.65537402 36.39253214 192.90530676 36.33719349 192.13251019 C37.20051314 174.69602542 42.74467579 175.25385936 57.59985352 160.39868164 C23.93985352 160.39868164 -9.72014648 160.39868164 -44.40014648 160.39868164 C-38.13014648 166.66868164 -31.86014648 172.93868164 -25.40014648 179.39868164 C-23.84163707 182.51570047 -24.30035998 185.81595051 -24.33764648 189.23461914 C-24.34709785 190.91495627 -24.35628089 192.59529491 -24.36523438 194.27563477 C-24.37152863 195.17032471 -24.37782288 196.06501465 -24.38430786 196.98681641 C-24.41135859 201.74649334 -24.40139039 206.5061368 -24.39624023 211.26586914 C-24.39006471 217.31345419 -24.39483988 223.36010992 -24.45141602 229.4074707 C-24.4961896 234.29922256 -24.4959453 239.18926465 -24.46728516 244.08111572 C-24.46424007 245.93072773 -24.47675563 247.780444 -24.50634766 249.62982178 C-24.70750268 262.95634182 -22.17076776 272.30247748 -15.2094574 283.7310791 C-14.40014648 285.39868164 -14.40014648 285.39868164 -14.40014648 288.39868164 C-53.34014648 288.39868164 -92.28014648 288.39868164 -132.40014648 288.39868164 C-130.38320603 284.36480072 -129.82185416 283.77434748 -126.25772095 281.54519653 C-120.11641114 277.13920982 -113.85685545 272.0518944 -111.88844967 264.4128828 C-110.11682928 253.30979463 -111.46730665 241.666427 -112.2679863 230.52370834 C-112.70458297 224.33318175 -112.94209732 218.14400665 -113.14346313 211.94192505 C-113.73673098 194.31925685 -114.43405902 176.71457456 -115.66674805 159.1237793 C-121.18182202 78.64006187 -121.18182202 78.64006187 -94.9981966 47.54215908 C-69.81627194 18.86146234 -39.45753847 -2.60668659 0 0 Z M-15.15014648 39.46118164 C-16.06054688 40.2682959 -16.97094727 41.07541016 -17.90893555 41.90698242 C-26.91294331 51.31459423 -25.64323604 62.12029883 -25.40014648 74.39868164 C-25.38159148 76.98451938 -25.36593416 79.57037913 -25.3527832 82.15625 C-25.29394041 90.55125105 -25.12975177 98.94248988 -24.96264648 107.33618164 C-24.77702148 117.25680664 -24.59139648 127.17743164 -24.40014648 137.39868164 C-3.61014648 137.39868164 17.17985352 137.39868164 38.59985352 137.39868164 C38.83264078 122.28454307 38.83264078 122.28454307 38.99047852 107.17016602 C39.03825775 101.00285615 39.09470484 94.83649866 39.20336914 88.66992188 C39.29045438 83.69666701 39.3381608 78.72443355 39.35887146 73.75047493 C39.37362516 71.85536686 39.40243773 69.96031319 39.44569397 68.0656414 C40.06376581 57.98008755 40.06376581 57.98008755 36.88414001 48.76171875 C34.87096773 46.99434757 32.91053941 45.73534735 30.59985352 44.39868164 C29.43944149 43.27121437 28.30953545 42.11051342 27.22875977 40.90649414 C26.71764648 40.34704102 26.2065332 39.78758789 25.67993164 39.21118164 C25.17913086 38.65430664 24.67833008 38.09743164 24.16235352 37.52368164 C23.12200318 36.38043951 22.08163933 35.23720968 21.04125977 34.09399414 C20.2355957 33.20454102 19.42993164 32.31508789 18.59985352 31.39868164 C15.73375596 28.53258409 9.32672967 29.0583521 5.53637695 28.92382812 C-3.45942052 29.34186813 -8.76443856 33.39575653 -15.15014648 39.46118164 Z " fill="#FFFFFF" transform="translate(901.400146484375,153.601318359375)"/>
<path d="M0 0 C38.94 0 77.88 0 118 0 C117.14777134 4.26114329 116.29995714 6.29245523 114.1171875 9.8445282 C107.29505135 21.40878322 107.88389203 33.11387922 108 46.1875 C107.99246719 48.58603221 107.98142069 50.9845557 107.96704102 53.38305664 C107.93880751 59.64350554 107.95776527 65.90292176 107.98712158 72.16333008 C108.008635 78.57249421 107.98473189 84.98147929 107.96484375 91.390625 C107.93253731 103.92741961 107.95437494 116.46324658 108 129 C117.9 128.505 117.9 128.505 128 128 C149.12 85.76 170.24 43.52 192 0 C206.52 0 221.04 0 236 0 C234.15250365 3.69499269 233.23705701 4.89814587 230.23730469 7.42626953 C215.43521166 20.56945689 207.63033801 35.14698886 199.2666626 52.75402832 C197.89112809 55.62368218 196.47566924 58.47280348 195.05913162 61.32238579 C193.68811581 64.08570223 192.33273271 66.85642763 190.98293304 69.63016129 C190.34295681 70.94478857 189.7002205 72.25807614 189.05460358 73.56994247 C188.16539204 75.38706646 187.29750778 77.21458039 186.43066406 79.04248047 C185.68722748 80.59199905 185.68722748 80.59199905 184.92877197 82.17282104 C183.3332607 87.02955232 185.09240314 90.52675947 187.30144984 94.9808194 C187.78150364 95.92577286 187.78150364 95.92577286 188.27125549 96.88981628 C188.61104476 97.57054697 188.95083403 98.25127765 189.30091995 98.95263654 C190.43915935 101.22937315 191.58591408 103.50171053 192.73266602 105.77416992 C193.55106423 107.40684546 194.36892198 109.03979201 195.1862793 110.67298889 C196.94637839 114.1870948 198.71022783 117.69928318 200.47699165 121.21004295 C203.26830217 126.75689661 206.05089996 132.30809141 208.83226013 137.85993958 C214.23275761 148.6368035 219.64227807 159.40912522 225.0526123 170.18105316 C231.94411803 183.90322977 238.83112795 197.62765841 245.71093506 211.35570413 C248.47935559 216.87912234 251.25196245 222.40041298 254.02783024 227.92009199 C255.74999346 231.34637251 257.46891324 234.77427253 259.18697357 238.20261192 C259.98700135 239.79730545 260.78842074 241.39130165 261.59129906 242.98456192 C262.68310074 245.15160721 263.77002165 247.32103083 264.85572815 249.49113464 C265.17799474 250.12779578 265.50026133 250.76445691 265.83229357 251.42041081 C268 255.77184263 268 255.77184263 268 258 C268.57073242 258.24621094 269.14146484 258.49242187 269.72949219 258.74609375 C272.3784281 260.20898997 274.18548546 261.92645319 276.328125 264.0625 C277.12734375 264.85914063 277.9265625 265.65578125 278.75 266.4765625 C279.575 267.30929687 280.4 268.14203125 281.25 269 C282.09046875 269.83273437 282.9309375 270.66546875 283.796875 271.5234375 C284.98796875 272.71839844 284.98796875 272.71839844 286.203125 273.9375 C286.93176758 274.66839844 287.66041016 275.39929688 288.41113281 276.15234375 C290 278 290 278 290 280 C257.66 280 225.32 280 192 280 C170.88 237.76 149.76 195.52 128 152 C114.8 152 101.6 152 88 152 C91.27550781 154.40023437 94.55101562 156.80046875 97.92578125 159.2734375 C106.16377738 166.63915428 109.11700504 173.22352761 109.75107002 184.13033676 C110.06128692 193.63900831 109.72704859 203.1538685 109.31225586 212.6539917 C108.9837579 220.47703238 108.80420717 228.30263077 108.67269325 236.13114548 C108.60755247 238.82780183 108.47867026 241.5153577 108.34086609 244.20913696 C107.90763496 256.4661018 110.77348252 264.88221093 117.180089 275.32582664 C118 277 118 277 118 280 C79.06 280 40.12 280 0 280 C1.90934989 276.18130022 2.87331879 275.04148701 6.04981422 272.49418449 C17.13897981 263.08728647 17.13897981 263.08728647 22.1010921 249.86672425 C22.45463712 244.76860234 22.44565531 239.71697392 22.36083984 234.60986328 C22.38857279 232.31446411 22.42389973 230.01914625 22.46615601 227.72396851 C22.55608569 221.5403762 22.53341116 215.36213546 22.48372221 209.17827463 C22.45310763 203.9945399 22.48002687 198.81174202 22.50699961 193.62803638 C22.57395831 180.69039218 22.53403603 167.75598442 22.44159503 154.81864499 C22.36939037 144.32766306 22.39735269 133.84079665 22.49755859 123.35009766 C22.61442396 111.11308074 22.66236074 98.87908637 22.61383593 86.64148128 C22.5885324 80.18337669 22.59016937 73.72845711 22.66477585 67.27066422 C24.56169207 37.3301241 24.56169207 37.3301241 12.66439247 11.36483574 C9.23978299 8.27601548 5.75527845 5.58732387 1.79490089 3.22279167 C1.2025836 2.81927042 0.6102663 2.41574917 0 2 C0 1.34 0 0.68 0 0 Z " fill="#FFFFFF" transform="translate(1369,162)"/>
<path d="M0 0 C3.03902608 0.02576198 6.07663913 -0.00266998 9.11557287 -0.03058285 C16.29945794 -0.09596489 23.47948228 -0.07612441 30.66315246 0.00122476 C38.0165291 0.07912785 45.36001123 0.02295549 52.712524 -0.10157591 C59.0790703 -0.20517396 65.44260204 -0.22913388 71.80987352 -0.19083732 C75.58946616 -0.16851528 79.36349199 -0.17258303 83.14244056 -0.25188231 C97.22019728 -0.51617321 109.21630112 -0.37808066 119.98285747 9.71552396 C123.80734401 13.74750655 127.35952862 17.91497448 130.66486144 22.38232827 C134.08849702 20.76598797 136.2995135 18.96942077 138.95783019 16.24951577 C139.75253722 15.44385171 140.54724425 14.63818765 141.36603332 13.80810952 C142.59676574 12.5454728 142.59676574 12.5454728 143.85236144 11.25732827 C145.48951774 9.58593245 147.12872444 7.91654166 148.77033019 6.24951577 C149.49373595 5.5081437 150.21714171 4.76677163 150.96246886 4.00293374 C152.66486144 2.38232827 152.66486144 2.38232827 153.66486144 2.38232827 C153.66486144 31.09232827 153.66486144 59.80232827 153.66486144 89.38232827 C149.49439319 86.88004732 147.27886304 85.22811831 144.10236144 81.77295327 C143.63878234 81.27072244 143.17520324 80.7684916 142.69757628 80.25104165 C139.40962993 76.59290248 136.43525243 72.7713248 133.52033019 68.81006265 C128.49331067 62.02286527 123.23473127 55.48270736 117.66486144 49.13232827 C117.16921313 48.56702024 116.67356483 48.0017122 116.16289687 47.41927361 C102.8711975 32.50117401 90.14227898 23.7222985 69.8305223 22.32009149 C48.44457088 21.23626417 26.90552911 22.89989453 5.66486144 25.38232827 C6.50866504 25.89928089 6.50866504 25.89928089 7.36951518 26.42667699 C15.679793 31.91594369 23.60912584 38.66821317 25.81180739 48.74062371 C27.76337873 60.76022962 27.3371733 73.15983364 27.18411446 85.29414701 C27.13175152 90.68033681 27.17408923 96.06599354 27.20104003 101.4522593 C27.23090883 110.49171499 27.18199758 119.52819546 27.08698058 128.56714272 C26.9787126 138.97412777 27.00346953 149.37449951 27.09776503 159.78147155 C27.18523182 169.85066098 27.17034147 179.91737989 27.11248374 189.98669648 C27.09018539 194.24586791 27.10409722 198.50254559 27.14874244 202.76152635 C27.47729301 239.38813799 27.47729301 239.38813799 18.05606151 249.79300237 C14.49426424 253.06669322 10.82968304 255.9186609 6.66486144 258.38232827 C17.10439879 258.8969795 27.54082706 259.28531351 37.9905622 259.52219605 C42.84625188 259.63603675 47.69314581 259.78966429 52.54376769 260.04199624 C77.12384799 262.08213784 77.12384799 262.08213784 98.60374045 252.26126695 C103.58726199 247.4679195 107.63909663 241.98210543 111.66486144 236.38232827 C116.20822066 230.83276231 121.1793819 225.70844958 126.24298644 220.63623452 C126.93624022 219.93965234 127.62949401 219.24307015 128.34375548 218.52537942 C129.79453879 217.06957528 131.24664084 215.61508422 132.70001769 214.16186929 C134.92816671 211.93150981 137.14816585 209.69323896 139.36798644 207.4545939 C140.78416419 206.03548603 142.20081391 204.61684896 143.61798644 203.19873452 C144.28050414 202.52903131 144.94302184 201.85932809 145.62561584 201.16933084 C146.24345946 200.55456384 146.86130309 199.93979684 147.49786925 199.30640054 C148.03857055 198.76427423 148.57927184 198.22214791 149.13635802 197.66359353 C150.66486144 196.38232827 150.66486144 196.38232827 153.66486144 195.38232827 C153.66486144 223.76232827 153.66486144 252.14232827 153.66486144 281.38232827 C150.05531154 279.57755332 148.30858073 278.26307361 145.55548644 275.46826577 C144.80138488 274.7077189 144.04728332 273.94717202 143.27033019 273.16357827 C142.4930255 272.36951577 141.71572082 271.57545327 140.91486144 270.75732827 C140.122088 269.9555314 139.32931457 269.15373452 138.51251769 268.32764077 C136.55871651 266.35029981 134.60974041 264.36843918 132.66486144 262.38232827 C129.23388386 263.80814143 127.62482099 265.44687651 125.44429564 268.42244363 C118.20925878 277.46127021 111.87839322 283.22703178 100.07439876 284.58459401 C93.83902811 284.96422128 87.63869765 285.08421123 81.39298677 285.03070831 C78.36916204 285.01491028 75.34696132 285.05445518 72.32341319 285.09267956 C65.16949131 285.18159329 58.01985623 285.17766013 50.86578918 285.11352944 C44.36505422 285.05668622 37.87573114 285.10609267 31.37653136 285.25708413 C-29.00641996 286.62955531 -29.00641996 286.62955531 -42.7347815 273.53877664 C-46.51393526 269.47921289 -49.64433681 265.14483875 -52.36332154 260.31575418 C-54.19922709 257.58452058 -55.32459614 256.6003411 -57.90282178 254.75839829 C-60.69735583 252.3936458 -61.8306547 250.9223024 -62.21602654 247.25900769 C-62.25431049 245.65038576 -62.25443823 244.04057198 -62.22402406 242.43178201 C-62.23494399 241.54138 -62.24586393 240.650978 -62.25711477 239.73359412 C-62.28499862 236.75508058 -62.26293827 233.77907247 -62.24090028 230.80054116 C-62.25038727 228.66324298 -62.26285186 226.52595624 -62.27807069 224.38869119 C-62.30998911 218.58682334 -62.29760707 212.78582658 -62.27541709 206.98394346 C-62.25769626 200.91199749 -62.27413036 194.84012617 -62.28512025 188.76817727 C-62.29785696 178.57017016 -62.28106927 168.37251785 -62.24773622 158.1745646 C-62.20965013 146.38638064 -62.22197224 134.59904433 -62.26052105 122.81088096 C-62.29229485 112.68921685 -62.29676535 102.56780782 -62.27845037 92.44610995 C-62.26754012 86.40118475 -62.26607373 80.35665785 -62.28920579 74.31175828 C-62.30943849 68.62738115 -62.29538078 62.94409571 -62.25494599 57.25983644 C-62.24569564 55.17452836 -62.24833951 53.08912829 -62.26378465 51.0038569 C-62.28294135 48.15462046 -62.2589034 45.30887269 -62.22402406 42.45985818 C-62.23963911 41.63611406 -62.25525416 40.81236994 -62.2713424 39.96366388 C-62.16029553 35.28181236 -61.3534266 32.90535739 -58.02948117 29.52674127 C-56.8176913 28.4559374 -55.58800986 27.40476121 -54.33513856 26.38232827 C-53.61356663 25.75340519 -52.8919947 25.12448211 -52.14855695 24.47650075 C-51.25172303 23.74275715 -51.25172303 23.74275715 -50.33677125 22.99419045 C-47.48770742 20.55193585 -45.20624406 18.05574539 -42.94544435 15.06306863 C-31.15161599 0.05895289 -17.82671879 -0.21174353 0 0 Z " fill="#FFFFFF" transform="translate(1162.3351385593414,159.61767172813416)"/>
<path d="M0 0 C13.53 0 27.06 0 41 0 C41 0.66 41 1.32 41 2 C43.31 2 45.62 2 48 2 C48 2.66 48 3.32 48 4 C49.32 4 50.64 4 52 4 C52 4.66 52 5.32 52 6 C52.928125 6.12375 53.85625 6.2475 54.8125 6.375 C58 7 58 7 61 9 C61 9.66 61 10.32 61 11 C61.66 11 62.32 11 63 11 C63 11.66 63 12.32 63 13 C63.66 13 64.32 13 65 13 C67.32590854 16.63423209 67.16265833 19.77088331 67 24 C66.34 24 65.68 24 65 24 C64.855625 24.61875 64.71125 25.2375 64.5625 25.875 C64 28 64 28 63 30 C62.34 30 61.68 30 61 30 C60.67 31.65 60.34 33.3 60 35 C59.34 35 58.68 35 58 35 C57.01 37.97 57.01 37.97 56 41 C55.34 41 54.68 41 54 41 C54 41.99 54 42.98 54 44 C53.34 44 52.68 44 52 44 C52 44.66 52 45.32 52 46 C51.34 46 50.68 46 50 46 C50 47.32 50 48.64 50 50 C49.34 50 48.68 50 48 50 C47.71125 50.763125 47.4225 51.52625 47.125 52.3125 C46 55 46 55 44 58 C43.77193555 60.52469731 43.65133569 62.94908949 43.62109375 65.4765625 C43.60409927 66.20241547 43.5871048 66.92826843 43.56959534 67.67611694 C43.51650049 69.9923232 43.47617219 72.30851152 43.4375 74.625 C43.39360984 76.94854002 43.34696726 79.27193951 43.29469299 81.5953064 C43.26266907 83.04085743 43.23579988 84.48653323 43.21446228 85.93228149 C43.11175456 90.88824544 43.11175456 90.88824544 42 92 C41.88207919 93.74325159 41.83266471 95.49118588 41.81054688 97.23828125 C41.79382935 98.35614014 41.77711182 99.47399902 41.7598877 100.62573242 C41.74631226 101.84236572 41.73273682 103.05899902 41.71875 104.3125 C41.69113586 106.17128784 41.69113586 106.17128784 41.66296387 108.06762695 C41.60399014 112.04503543 41.55106125 116.02248429 41.5 120 C41.43286945 125.22926529 41.35893379 130.45837778 41.28125 135.6875 C41.26767456 136.9041333 41.25409912 138.1207666 41.2401123 139.37426758 C41.22339478 140.49212646 41.20667725 141.60998535 41.18945312 142.76171875 C41.17692505 143.75131592 41.16439697 144.74091309 41.15148926 145.76049805 C41 148 41 148 40 149 C39.84259395 150.70563778 39.74906608 152.41727244 39.68359375 154.12890625 C39.62075195 155.68061523 39.62075195 155.68061523 39.55664062 157.26367188 C39.51732422 158.35228516 39.47800781 159.44089844 39.4375 160.5625 C39.37272461 162.2012207 39.37272461 162.2012207 39.30664062 163.87304688 C39.20017932 166.58189564 39.09816484 169.29083992 39 172 C37.68 172.33 36.36 172.66 35 173 C35 173.66 35 174.32 35 175 C30.98464932 176.90079664 27.81003409 177.23570807 23.38671875 177.1953125 C22.13955078 177.18886719 20.89238281 177.18242187 19.60742188 177.17578125 C18.31384766 177.15902344 17.02027344 177.14226562 15.6875 177.125 C14.37458984 177.11597656 13.06167969 177.10695313 11.70898438 177.09765625 C8.47247087 177.07411797 5.23632851 177.0412352 2 177 C2 176.34 2 175.68 2 175 C0.824375 175.04125 -0.35125 175.0825 -1.5625 175.125 C-5.72409674 175.13983635 -9.06487667 174.31170778 -13 173 C-13 172.34 -13 171.68 -13 171 C-14.32 171 -15.64 171 -17 171 C-17 170.34 -17 169.68 -17 169 C-18.32 169 -19.64 169 -21 169 C-21 168.34 -21 167.68 -21 167 C-21.99 167 -22.98 167 -24 167 C-24 166.34 -24 165.68 -24 165 C-25.98 164.67 -27.96 164.34 -30 164 C-30 163.34 -30 162.68 -30 162 C-31.32 161.67 -32.64 161.34 -34 161 C-34.02689216 159.52093108 -34.04634621 158.04172517 -34.0625 156.5625 C-34.07410156 155.73878906 -34.08570313 154.91507813 -34.09765625 154.06640625 C-34 152 -34 152 -33 151 C-32.76924918 149.65252916 -32.58846937 148.29622435 -32.4375 146.9375 C-32.293125 145.638125 -32.14875 144.33875 -32 143 C-31.34 143 -30.68 143 -30 143 C-30 140.69 -30 138.38 -30 136 C-29.34 136 -28.68 136 -28 136 C-28 133.03 -28 130.06 -28 127 C-27.34 127 -26.68 127 -26 127 C-26 124.36 -26 121.72 -26 119 C-25.34 119 -24.68 119 -24 119 C-23.92652344 117.65808594 -23.92652344 117.65808594 -23.8515625 116.2890625 C-23.40311654 109.03660879 -22.67886409 102.07404867 -21 95 C-20.34 95 -19.68 95 -19 95 C-19.0309375 93.2984375 -19.0309375 93.2984375 -19.0625 91.5625 C-19 88 -19 88 -18 87 C-17.79395915 85.67218122 -17.6337041 84.33704105 -17.5 83 C-17.11111111 79.11111111 -17.11111111 79.11111111 -16 78 C-15.63239269 75.67182036 -15.29758419 73.3381615 -15 71 C-14.34 71 -13.68 71 -13 71 C-13 68.36 -13 65.72 -13 63 C-12.34 63 -11.68 63 -11 63 C-11 60.03 -11 57.06 -11 54 C-10.34 54 -9.68 54 -9 54 C-8.67 49.05 -8.34 44.1 -8 39 C-7.34 39 -6.68 39 -6 39 C-6 37.02 -6 35.04 -6 33 C-7.32 33 -8.64 33 -10 33 C-10 33.66 -10 34.32 -10 35 C-10.99 35 -11.98 35 -13 35 C-13 35.66 -13 36.32 -13 37 C-14.32 37 -15.64 37 -17 37 C-17 37.66 -17 38.32 -17 39 C-18.32 39 -19.64 39 -21 39 C-21 39.66 -21 40.32 -21 41 C-22.32 41 -23.64 41 -25 41 C-25 41.66 -25 42.32 -25 43 C-31.5 46 -31.5 46 -36 46 C-36 46.66 -36 47.32 -36 48 C-36.99 48 -37.98 48 -39 48 C-39 48.66 -39 49.32 -39 50 C-40.32 50 -41.64 50 -43 50 C-43 50.66 -43 51.32 -43 52 C-44.32 52 -45.64 52 -47 52 C-47 52.66 -47 53.32 -47 54 C-48.32 54 -49.64 54 -51 54 C-50.85975781 56.47960136 -50.7130815 58.95852402 -50.5625 61.4375 C-50.52318359 62.14455078 -50.48386719 62.85160156 -50.44335938 63.58007812 C-50.52375562 67.08690419 -50.52375562 67.08690419 -49 70 C-48.91138008 72.8116338 -48.88477645 75.59858255 -48.90234375 78.41015625 C-48.9037587 79.25219101 -48.90517365 80.09422577 -48.90663147 80.96177673 C-48.91224737 83.66205335 -48.92480252 86.36224828 -48.9375 89.0625 C-48.94251295 90.88867068 -48.94707621 92.71484266 -48.95117188 94.54101562 C-48.96222196 99.02737542 -48.97949721 103.51367384 -49 108 C-49.66 108 -50.32 108 -51 108 C-50.98839844 108.56847656 -50.97679687 109.13695312 -50.96484375 109.72265625 C-50.81331878 122.68886463 -50.81331878 122.68886463 -54 128 C-54.66 128 -55.32 128 -56 128 C-56 128.66 -56 129.32 -56 130 C-56.66 130 -57.32 130 -58 130 C-58 130.66 -58 131.32 -58 132 C-61 134 -61 134 -64 134 C-64 134.66 -64 135.32 -64 136 C-65.86896555 136.84678051 -67.74550181 137.67686211 -69.625 138.5 C-70.66914062 138.9640625 -71.71328125 139.428125 -72.7890625 139.90625 C-76.08124291 141.02767398 -78.55115223 141.207138 -82 141 C-82 141.66 -82 142.32 -82 143 C-85.3 143 -88.6 143 -92 143 C-92 143.66 -92 144.32 -92 145 C-96.29 145 -100.58 145 -105 145 C-105 144.34 -105 143.68 -105 143 C-107.31 143 -109.62 143 -112 143 C-112 142.34 -112 141.68 -112 141 C-114.31 141 -116.62 141 -119 141 C-119 140.34 -119 139.68 -119 139 C-119.556875 138.97421875 -120.11375 138.9484375 -120.6875 138.921875 C-126.68293548 138.47626831 -130.76741536 136.94927498 -136 134 C-136 133.34 -136 132.68 -136 132 C-137.32 132 -138.64 132 -140 132 C-140 131.34 -140 130.68 -140 130 C-140.66 130 -141.32 130 -142 130 C-142 129.34 -142 128.68 -142 128 C-143.32 128 -144.64 128 -146 128 C-146 127.34 -146 126.68 -146 126 C-146.639375 125.731875 -147.27875 125.46375 -147.9375 125.1875 C-150 124 -150 124 -151 121 C-151.66 121 -152.32 121 -153 121 C-153 120.34 -153 119.68 -153 119 C-153.66 119 -154.32 119 -155 119 C-155 118.34 -155 117.68 -155 117 C-155.66 117 -156.32 117 -157 117 C-157 116.34 -157 115.68 -157 115 C-157.66 115 -158.32 115 -159 115 C-159 114.34 -159 113.68 -159 113 C-159.66 113 -160.32 113 -161 113 C-161.2165625 111.2984375 -161.2165625 111.2984375 -161.4375 109.5625 C-161.61171478 106.19222799 -161.61171478 106.19222799 -163 105 C-163.0979057 103.50261876 -163.12974864 102.00057108 -163.125 100.5 C-163.12757812 99.6853125 -163.13015625 98.870625 -163.1328125 98.03125 C-163 96 -163 96 -162 95 C-161.81547667 93.60875265 -161.67730342 92.21122736 -161.5625 90.8125 C-161.18215548 86.97224731 -160.3924327 83.62032502 -159 80 C-158.34 80 -157.68 80 -157 80 C-156.7525 79.030625 -156.505 78.06125 -156.25 77.0625 C-155.8375 76.051875 -155.425 75.04125 -155 74 C-152.875 73.125 -152.875 73.125 -151 73 C-151 72.34 -151 71.68 -151 71 C-150.34 71 -149.68 71 -149 71 C-149 70.34 -149 69.68 -149 69 C-145.62902617 67.50178941 -143.79557881 67 -140 67 C-140 66.34 -140 65.68 -140 65 C-138.35 65 -136.7 65 -135 65 C-135 64.34 -135 63.68 -135 63 C-131.49223216 61.39644899 -128.85645121 60.77963136 -125 61 C-125 60.34 -125 59.68 -125 59 C-122.36 58.67 -119.72 58.34 -117 58 C-117 57.34 -117 56.68 -117 56 C-115.35 56 -113.7 56 -112 56 C-112 55.34 -112 54.68 -112 54 C-110.68 54 -109.36 54 -108 54 C-108 53.34 -108 52.68 -108 52 C-106.35 52 -104.7 52 -103 52 C-103 51.34 -103 50.68 -103 50 C-101.68 50 -100.36 50 -99 50 C-99 49.34 -99 48.68 -99 48 C-90.57142857 44.57142857 -90.57142857 44.57142857 -86 45 C-86 44.34 -86 43.68 -86 43 C-84.68 43 -83.36 43 -82 43 C-82 42.34 -82 41.68 -82 41 C-70.26213592 35 -70.26213592 35 -65 35 C-65 34.34 -65 33.68 -65 33 C-61.535 32.505 -61.535 32.505 -58 32 C-58 31.34 -58 30.68 -58 30 C-56.68 30 -55.36 30 -54 30 C-54 29.34 -54 28.68 -54 28 C-51.35261084 26.5393715 -50.10551666 26 -47 26 C-47 25.34 -47 24.68 -47 24 C-45.68 24 -44.36 24 -43 24 C-43 23.34 -43 22.68 -43 22 C-41.73160474 21.49384702 -40.46016898 20.99530901 -39.1875 20.5 C-38.47980469 20.2215625 -37.77210937 19.943125 -37.04296875 19.65625 C-35 19 -35 19 -32 19 C-32 18.34 -32 17.68 -32 17 C-30.68 17 -29.36 17 -28 17 C-28 16.34 -28 15.68 -28 15 C-26.68 15 -25.36 15 -24 15 C-24 14.34 -24 13.68 -24 13 C-23.01 13 -22.02 13 -21 13 C-21 12.34 -21 11.68 -21 11 C-19.68 11 -18.36 11 -17 11 C-17 10.34 -17 9.68 -17 9 C-15.68 9 -14.36 9 -13 9 C-13 8.34 -13 7.68 -13 7 C-11.02 6.67 -9.04 6.34 -7 6 C-7 5.34 -7 4.68 -7 4 C-6.01 4 -5.02 4 -4 4 C-4 3.34 -4 2.68 -4 2 C-2.68 2 -1.36 2 0 2 C0 1.34 0 0.68 0 0 Z M-105 80 C-105 80.66 -105 81.32 -105 82 C-105.515625 82.12375 -106.03125 82.2475 -106.5625 82.375 C-109.72702351 83.18641628 -112.86124985 84.0945913 -116 85 C-116 85.66 -116 86.32 -116 87 C-116.598125 87.12375 -117.19625 87.2475 -117.8125 87.375 C-120.26231348 87.95475985 -120.26231348 87.95475985 -123 90 C-122.67 91.65 -122.34 93.3 -122 95 C-121.34 95 -120.68 95 -120 95 C-120 96.32 -120 97.64 -120 99 C-118.68 99.33 -117.36 99.66 -116 100 C-116 100.66 -116 101.32 -116 102 C-115.34 102 -114.68 102 -114 102 C-114 102.66 -114 103.32 -114 104 C-113.34 104 -112.68 104 -112 104 C-112 104.66 -112 105.32 -112 106 C-111.01 106 -110.02 106 -109 106 C-109 106.66 -109 107.32 -109 108 C-108.34 108 -107.68 108 -107 108 C-107 108.66 -107 109.32 -107 110 C-105.02 110 -103.04 110 -101 110 C-100.90912109 108.93458984 -100.90912109 108.93458984 -100.81640625 107.84765625 C-100.73261719 106.92855469 -100.64882812 106.00945312 -100.5625 105.0625 C-100.48128906 104.14597656 -100.40007812 103.22945312 -100.31640625 102.28515625 C-100 100 -100 100 -99 99 C-98.95919217 97.00041636 -98.95745644 94.99954746 -99 93 C-99.66 93 -100.32 93 -101 93 C-100.97679687 92.31292969 -100.95359375 91.62585938 -100.9296875 90.91796875 C-100.91164063 90.01691406 -100.89359375 89.11585938 -100.875 88.1875 C-100.85179687 87.29417969 -100.82859375 86.40085937 -100.8046875 85.48046875 C-100.81714173 82.74597286 -100.81714173 82.74597286 -103 80 C-103.66 80 -104.32 80 -105 80 Z " fill="#FFFFFF" transform="translate(1846,258)"/>
<path d="M0 0 C63.36 0 126.72 0 192 0 C192 4.29 192 8.58 192 13 C128.64 13 65.28 13 0 13 C0 8.71 0 4.42 0 0 Z " fill="#FFFFFF" transform="translate(232,322)"/>
<path d="M0 0 C4.29 0 8.58 0 13 0 C13 63.36 13 126.72 13 192 C9.04 192 5.08 192 1 192 C-0.70589706 190.29410294 -0.12229238 188.14723106 -0.12908131 185.87185377 C-0.12616847 185.13159549 -0.12325563 184.3913372 -0.12025452 183.62864685 C-0.12110894 182.84783392 -0.12196337 182.067021 -0.12284368 181.26254708 C-0.12450086 178.6260991 -0.11897326 175.98971368 -0.11352539 173.35327148 C-0.11324354 171.47137453 -0.1134012 169.58947746 -0.1139679 167.70758057 C-0.11425597 162.58176065 -0.10835767 157.45596392 -0.10139394 152.33014941 C-0.09516202 146.97962736 -0.09455673 141.62910483 -0.09336853 136.27857971 C-0.09025474 126.13901642 -0.0820407 115.99946386 -0.07201904 105.8599053 C-0.06085939 94.31959526 -0.05534783 82.77928472 -0.05032361 71.23897064 C-0.03985813 47.49264114 -0.02225776 23.74632117 0 0 Z " fill="#FFFFFF" transform="translate(204,347)"/>
<path d="M0 0 C1.65322266 0.01740234 1.65322266 0.01740234 3.33984375 0.03515625 C4.44457031 0.04417969 5.54929687 0.05320312 6.6875 0.0625 C7.54214844 0.07410156 8.39679688 0.08570313 9.27734375 0.09765625 C5.27608235 37.19170307 -11.27398897 71.76857324 -40.28515625 95.91015625 C-42.08957108 97.3164258 -43.90179955 98.71274188 -45.72265625 100.09765625 C-46.51285156 100.73832031 -47.30304688 101.37898438 -48.1171875 102.0390625 C-69.8412743 118.97358686 -96.47820115 127.56706888 -123.72265625 129.09765625 C-123.72265625 125.13765625 -123.72265625 121.17765625 -123.72265625 117.09765625 C-121.43328125 116.69546875 -121.43328125 116.69546875 -119.09765625 116.28515625 C-91.89075713 111.31298164 -69.32061281 102.66510612 -47.72265625 85.09765625 C-46.89636719 84.42734375 -46.07007813 83.75703125 -45.21875 83.06640625 C-21.6387238 63.05414053 -9.30769452 33.91449111 -4.30078125 4.09765625 C-3.53556681 0.12681373 -3.53556681 0.12681373 0 0 Z " fill="#FFFFFF" transform="translate(345.72265625,339.90234375)"/>
<path d="M0 0 C34.49523888 1.11274964 65.89971013 18.03068997 90 42 C90.48597656 42.48194824 90.97195313 42.96389648 91.47265625 43.46044922 C103.44360054 55.50070756 112.07712235 69.559885 119 85 C119.27827637 85.61359375 119.55655273 86.2271875 119.84326172 86.859375 C125.80169113 100.32247682 130 116.27035417 130 131 C126.04 131 122.08 131 118 131 C117.63648438 129.2365625 117.27296875 127.473125 116.8984375 125.65625 C108.97674187 88.0774733 92.73523431 55.44732334 60.05761719 33.33447266 C41.72832492 21.44696535 21.4538638 15.32024083 0 12 C0 8.04 0 4.08 0 0 Z " fill="#FFFFFF" transform="translate(225,186)"/>
<path d="M0 0 C3.96 0 7.92 0 12 0 C12.23074219 1.48628906 12.46148437 2.97257812 12.69921875 4.50390625 C18.30261718 39.3818445 33.37292791 71.82284927 62.625 93.3125 C64.41215434 94.54821822 66.2034823 95.77793442 68 97 C68.67933594 97.50917969 69.35867187 98.01835937 70.05859375 98.54296875 C86.41038062 110.43227967 107.35852113 115.78736449 127 119 C127 123.29 127 127.58 127 132 C93.85518573 127.56868244 66.59308001 114.91800955 42 92 C41.20851562 91.28585937 40.41703125 90.57171875 39.6015625 89.8359375 C27.12644145 78.08752253 17.89744899 63.5916111 11 48 C10.45859375 46.82566406 9.9171875 45.65132813 9.359375 44.44140625 C6.14523157 37.03102 3.97275883 29.59983481 2.125 21.75 C1.80172729 20.40204346 1.80172729 20.40204346 1.47192383 19.02685547 C0.04728515 12.57612932 -0.18164969 6.60350058 0 0 Z " fill="#FFFFFF" transform="translate(72,337)"/>
<path d="M0 0 C63.36 0 126.72 0 192 0 C192 3.96 192 7.92 192 12 C128.64 12 65.28 12 0 12 C0 8.04 0 4.08 0 0 Z " fill="#FFFFFF" transform="translate(0,320)"/>
<path d="M0 0 C3.96 0 7.92 0 12 0 C12 63.36 12 126.72 12 192 C8.04 192 4.08 192 0 192 C0 128.64 0 65.28 0 0 Z " fill="#FFFFFF" transform="translate(207,115)"/>
<path d="M0 0 C0 3.96 0 7.92 0 12 C-1.670625 12.23783203 -1.670625 12.23783203 -3.375 12.48046875 C-13.97134629 14.06840058 -23.90534302 16.41246449 -34 20 C-35.51787109 20.53560547 -35.51787109 20.53560547 -37.06640625 21.08203125 C-50.69199083 26.32834477 -63.11827368 34.33881486 -74 44 C-74.82628906 44.68320313 -75.65257812 45.36640625 -76.50390625 46.0703125 C-101.0396259 66.88151759 -112.48263506 97.18349827 -118 128 C-121.96 128 -125.92 128 -130 128 C-130.27069672 121.54087555 -129.31611662 115.94235841 -127.75 109.6875 C-127.51966064 108.75397705 -127.28932129 107.8204541 -127.05200195 106.85864258 C-121.87257269 86.29711627 -111.95063939 66.04919711 -98 50 C-97.56026855 49.4932373 -97.12053711 48.98647461 -96.66748047 48.46435547 C-72.99439224 21.40823574 -37.01750889 -0.64942998 0 0 Z " fill="#FFFFFF" transform="translate(202,186)"/>
<path d="M0 0 C3.0227067 2.26703002 4.94140228 4.25933845 5.75390625 8.01953125 C5.89424242 13.96042896 4.9787941 17.0832099 0.85546875 21.41015625 C-2.31167133 23.92999763 -5.75142194 24.0266335 -9.6875 23.96875 C-14.14227927 23.3612801 -16.89082287 20.7471518 -19.625 17.375 C-21.08217435 13.89397239 -21.15121989 11.43221902 -20.75 7.6875 C-18.92901954 3.5663337 -16.41608677 1.25376074 -12.75 -1.3125 C-8.1527696 -2.84491013 -4.33882373 -2.07080224 0 0 Z " fill="#FFFFFF" transform="translate(220.75,316.3125)"/>
</svg>
